<?xml version="1.0" encoding="UTF-8" standalone="no"?>
<!-- Created with Inkscape (http://www.inkscape.org/) -->

<svg
     xmlns:dc="http://purl.org/dc/elements/1.1/"
     xmlns:cc="http://creativecommons.org/ns#"
     xmlns:rdf="http://www.w3.org/1999/02/22-rdf-syntax-ns#"
     xmlns:svg="http://www.w3.org/2000/svg"
     xmlns="http://www.w3.org/2000/svg"
     xmlns:xlink="http://www.w3.org/1999/xlink"
     xmlns:sodipodi="http://sodipodi.sourceforge.net/DTD/sodipodi-0.dtd"
     xmlns:inkscape="http://www.inkscape.org/namespaces/inkscape"
     id="svg2"
     inkscape:version="0.48.3.1 r9886"
     inkscape:export-filename="/home/doudoune/Desktop/Datas/Projs/Cliparts Stocker/muffin.png"
     viewBox="0 0 188.5068 200.17742"
     sodipodi:version="0.32"
     inkscape:export-xdpi="90.000000"
     version="1.0"
     inkscape:output_extension="org.inkscape.output.svg.inkscape"
     inkscape:export-ydpi="90.000000"
     sodipodi:docname="jean-victor-balin-muffin (1).svg"
     width="100%"
     height="100%">
    <defs
         id="defs3">
        <radialGradient
             id="radialGradient2528"
             gradientUnits="userSpaceOnUse"
             cy="448.48001"
             cx="456.31"
             gradientTransform="scale(0.83205,1.2018)"
             r="35.800999"
             inkscape:collect="always">
            <stop
                 id="stop6823"
                 style="stop-color:#e79b9e"
                 offset="0" />
            <stop
                 id="stop6825"
                 style="stop-color:#890f18;stop-opacity:0"
                 offset="1" />
        </radialGradient>
        <radialGradient
             inkscape:collect="always"
             xlink:href="#radialGradient2528"
             id="radialGradient4355"
             gradientUnits="userSpaceOnUse"
             gradientTransform="matrix(0.39779672,-0.14275471,0.2776,0.47544053,83.61822,-115.01709)"
             cx="456.31"
             cy="448.48001"
             r="35.800999" />
        <radialGradient
             inkscape:collect="always"
             xlink:href="#radialGradient2528"
             id="radialGradient4508"
             gradientUnits="userSpaceOnUse"
             gradientTransform="matrix(0.39779672,-0.14275471,0.2776,0.47544053,83.61822,-115.01709)"
             cx="456.31"
             cy="448.48001"
             r="35.800999" />
        <radialGradient
             inkscape:collect="always"
             xlink:href="#radialGradient2528"
             id="radialGradient4516"
             gradientUnits="userSpaceOnUse"
             gradientTransform="matrix(0.41699411,-0.14275471,0.29099678,0.47544053,124.29582,-115.01709)"
             cx="456.31"
             cy="448.48001"
             r="35.800999" />
        <radialGradient
             inkscape:collect="always"
             xlink:href="#radialGradient2528"
             id="radialGradient4531"
             gradientUnits="userSpaceOnUse"
             gradientTransform="matrix(0.41699411,-0.14275471,0.29099678,0.47544053,124.29582,-115.01709)"
             cx="456.31"
             cy="448.48001"
             r="35.800999" />
        <radialGradient
             inkscape:collect="always"
             xlink:href="#radialGradient2528"
             id="radialGradient4536"
             gradientUnits="userSpaceOnUse"
             gradientTransform="matrix(0.41699411,-0.14275471,0.29099678,0.47544053,128.29582,-77.01709)"
             cx="456.31"
             cy="448.48001"
             r="35.800999" />
        <radialGradient
             inkscape:collect="always"
             xlink:href="#radialGradient2528"
             id="radialGradient4549"
             gradientUnits="userSpaceOnUse"
             gradientTransform="matrix(0.41699411,-0.14275471,0.29099678,0.47544053,128.29582,-77.01709)"
             cx="456.31"
             cy="448.48001"
             r="35.800999" />
        <radialGradient
             inkscape:collect="always"
             xlink:href="#radialGradient2528"
             id="radialGradient4554"
             gradientUnits="userSpaceOnUse"
             gradientTransform="matrix(0.41699411,-0.14275471,0.29099678,0.47544053,130.29582,-75.01709)"
             cx="456.31"
             cy="448.48001"
             r="35.800999" />
        <radialGradient
             inkscape:collect="always"
             xlink:href="#radialGradient2528"
             id="radialGradient4642"
             gradientUnits="userSpaceOnUse"
             gradientTransform="matrix(0.41699411,-0.14275471,0.29099678,0.47544053,130.29582,-75.01709)"
             cx="456.31"
             cy="448.48001"
             r="35.800999" />
    </defs>
    <sodipodi:namedview
         id="base"
         bordercolor="#666666"
         inkscape:window-x="0"
         inkscape:window-y="24"
         pagecolor="#ffffff"
         inkscape:zoom="2"
         inkscape:pageshadow="2"
         borderopacity="1.0"
         inkscape:current-layer="layer1"
         inkscape:cx="-96.350807"
         inkscape:cy="204.34394"
         inkscape:window-width="1680"
         showgrid="false"
         inkscape:pageopacity="0.0"
         inkscape:window-height="1003"
         inkscape:document-units="px"
         fit-margin-top="0"
         fit-margin-left="0"
         fit-margin-right="0"
         fit-margin-bottom="0"
         inkscape:window-maximized="0" />
    <g
         id="layer1"
         inkscape:label="Layer 1"
         inkscape:groupmode="layer"
         transform="translate(-338.35081,-51.011395)">
        <g
             id="g4585">
            <path
                 sodipodi:nodetypes="cccccccccccccccccc"
                 inkscape:connector-curvature="0"
                 id="path4555-2"
                 d="m 433.21875,87.9375 c -15.01786,-0.249069 -30.00834,2.48486 -44.34861,6.641836 -16.41941,4.358269 -30.84539,14.442584 -40.52802,27.980084 -5.56072,6.2516 -13.47974,16.86829 -8.31727,24.43463 6.93789,5.52377 2.25057,7.68577 8.4752,11.74564 4.30495,8.70226 8.08175,17.69668 11.55325,26.74108 4.53774,12.84503 5.50459,26.43468 6.89556,39.83048 2.01189,9.29896 12.39933,13.14035 20.67744,15.87676 14.86227,4.13701 30.03963,7.65899 45.62338,7.53264 13.86779,0.61471 28.09381,0.72851 41.24971,-4.22834 8.66945,-2.35928 17.89672,-5.92059 23.62082,-12.92493 3.27384,-8.67479 2.38082,-18.28858 4.17606,-27.32425 2.35046,-15.12133 9.02692,-29.06336 15.34026,-42.91532 4.93289,-4.15124 4.51764,-10.03744 8.75583,-13.3762 1.91994,-10.70016 -2.31122,-19.56906 -8.85035,-26.48473 -9.18313,-9.44428 -19.62848,-18.16502 -32.2202,-23.008257 -12.97168,-6.262016 -27.55458,-8.179177 -41.71761,-10.195403 -3.45689,-0.219129 -6.92182,-0.302656 -10.38545,-0.32572 z"
                 style="fill:#cb763a;fill-opacity:1" />
            <path
                 id="path4555"
                 sodipodi:nodetypes="cccccccccccccccccccccccccccccccccccccccccccccccccccccccccccccccccccccccccccccccccccccccccccccccccccccccccccc"
                 style="fill:#e0d5a9;fill-opacity:1"
                 d="m 344.9794,151.88684 c 0.3117,0.48223 0.8431,1.37391 1.3437,2.30197 0.5007,0.92807 1.3545,2.39296 1.875,3.27553 0.5206,0.87347 1.4318,2.62952 2.0309,4.03072 0.6,1.40119 1.169,2.7569 1.282,2.98436 0.113,0.23657 0.091,0.67331 0.562,1.36481 0.187,0.52772 0.428,1.19193 0.563,1.48308 0.134,0.29116 0.727,1.77425 1.312,3.26643 0.585,1.50128 1.198,2.95707 1.375,3.27553 0.177,0.30935 0.339,0.6733 0.344,0.79158 0.005,0.11829 0.274,0.7279 0.594,1.36481 1.868,3.75775 2.948,6.71483 5.561,16.25935 0.887,3.23913 1.821,7.88856 2.218,10.62726 0.076,0.52772 0.324,2.32926 0.438,3.02986 0.115,0.7006 0.457,2.41115 0.534,3.69407 0.077,1.28291 0.316,4.23089 0.624,6.67843 0.307,2.45665 0.552,5.75947 0.686,7.45183 0.288,3.64857 1.274,4.98608 1.502,5.5411 0.563,1.3648 1.067,2.82059 1.683,3.26642 0.28,0.20927 0.847,0.79159 1.282,1.28292 0.434,0.49133 2.663,2.12909 5,3.4393 0.956,0.53682 3.191,2.0836 5.437,3.07536 0.134,0 1.526,0.58231 3.281,1.16463 2.403,1.05545 3.234,0.93716 5.592,1.55587 0.895,0.19108 2.609,0.79159 3.25,0.93717 0.641,0.15468 1.587,0.44583 2.75,0.80068 1.628,0.35485 2.499,0.53683 4.094,1.11004 1.744,0.36395 3.235,0.93717 3.843,0.99176 0.609,0.0546 1.693,0.27296 2.438,0.48223 0.745,0.21837 2.419,0.57322 3.437,0.6551 1.019,0.25477 2.5,0.48223 2.938,0.54593 0.438,0.0546 1.418,0.18197 2.187,0.30935 1.826,0.29116 7.527,0.82798 10.532,0.99176 1.99,0.10918 6.543,0.38214 16.282,0.48223 3.43,0.0455 6.6,0.30025 8.21,0.14558 1.51,-0.13648 2.97,-0.22747 3.25,-0.19108 0.29,0.0273 0.77,-0.0273 1.07,-0.11828 0.32,-0.10008 6.36,-0.77339 6.96,-0.82798 0.61,-0.0455 8.96,-2.16549 9.16,-2.32926 0.2,-0.15468 3.89,-1.31931 4.78,-1.50129 2.94,-0.6278 2.99,-1.22832 5.78,-1.81973 1.31,-0.58232 2.49,-1.05545 2.63,-1.05545 0.13,0 1.04,-0.45493 2,-0.99176 2.34,-1.31931 8.66,-5.14075 9.09,-5.63208 0.44,-0.50043 1,-1.07365 1.28,-1.28292 0.62,-0.44583 1.69,-1.90162 2.26,-3.26642 0.22,-0.55502 1.02,-2.23828 1.31,-5.88685 0.13,-1.69236 0.47,-5.08617 0.78,-7.53372 0.31,-2.45664 0.64,-5.5138 0.72,-6.79671 0.08,-1.28292 0.23,-2.91158 0.34,-3.61218 0.12,-0.7006 0.27,-1.69236 0.35,-2.22008 0.39,-2.7387 1.33,-7.50642 2.21,-10.74555 2.62,-9.54452 3.79,-12.99292 5.66,-16.75068 0.32,-0.6369 0.59,-1.27381 0.59,-1.3921 0.01,-0.10918 0.17,-0.45493 0.35,-0.76429 0.17,-0.30935 0.79,-1.80153 1.37,-3.30282 0.59,-1.49218 1.18,-2.94797 1.31,-3.23913 0.14,-0.29116 0.41,-0.95536 0.6,-1.47399 0.18,-0.52772 0.42,-1.16463 0.53,-1.3921 0.11,-0.23656 0.68,-1.55587 1.28,-2.95707 0.6,-1.4012 1.54,-3.27552 2.06,-4.1581 0.52,-0.87347 1.25,-2.16548 1.75,-3.09355 0.5,-0.92807 1.16,-1.96532 1.47,-2.30197 0.31,-0.33665 0.56,-0.81888 0.56,-1.08274 0,-0.46403 0.44,-1.31931 -0.87,-1.61957 -1.45,-0.33665 -4.09,-0.30935 -5.25,0.0546 -1.28,0.41853 -1.67,0.71879 -3.81,2.90248 -0.99,1.00995 -2.15,1.98351 -2.56,2.16548 -0.59,0.24567 -1.45,0.30026 -3.97,0.22747 -3.3,-0.10009 -4.19,0.009 -6.38,0.79159 -1.19,0.42763 -2.09,1.22832 -4.28,3.78505 -1.36,1.59227 -2.06,1.76514 -7.53,1.76514 -4.49,0 -7.64,0.31846 -8.15,0.64601 -0.75,0.27296 -1.42,0.85528 -2.32,1.65596 -0.89,0.79159 -2.07,1.73785 -2.62,2.1018 -0.96,0.62781 -1.09,0.6733 -2.85,0.60051 -1.02,-0.0546 -3.06,-0.40034 -4.62,-0.77339 -3.21,-0.76429 -5.53,-0.88257 -7.03,-0.33665 -0.52,0.18197 -0.53,0.22747 -1.1,0.53682 -0.98,0.60052 -1.55,0.90077 -2.9,1.76515 -2.71,1.72875 -3.63,1.97441 -6.03,1.70145 -1.08,-0.11828 -1.52,-0.30935 -2.85,-1.27381 -0.86,-0.63691 -1.9,-1.31931 -2.34,-1.51039 -0.75,-0.32755 -0.9,-0.32755 -2,0.0273 -0.65,0.20927 -2.07,0.87347 -3.157,1.45579 -1.09,0.57322 -2.378,1.17373 -2.875,1.32841 -0.497,0.16377 -1.407,0.30025 -2,0.29116 -1.444,-0.0273 -4.298,-1.18283 -5.969,-2.42025 -1.761,-1.30112 -2.727,-1.63777 -4.313,-1.53768 -1.866,0.12738 -3.902,0.53682 -4.843,1.00085 -0.452,0.21837 -1.41,0.50043 -2.125,0.61871 -0.715,0.12739 -1.569,0.33666 -1.907,0.42764 -0.337,0.10009 -1.21,0.0819 -1.937,-0.0273 -1.504,-0.20927 -2.414,-0.83708 -3.938,-2.70231 -1.883,-2.30197 -4.5,-2.70231 -9.625,-1.47399 -1.556,0.37305 -3.603,0.7188 -4.625,0.76429 -1.751,0.0819 -1.881,0.0637 -2.843,-0.56412 -0.555,-0.36395 -1.731,-1.31021 -2.625,-2.11089 -0.894,-0.79159 -1.918,-1.55588 -2.282,-1.67416 -1.448,-0.48223 -3.669,-0.65511 -8.156,-0.65511 -5.47,0 -6.203,-0.17287 -7.562,-1.76514 -2.183,-2.54763 -3.085,-3.32102 -4.282,-3.74866 -2.185,-0.78249 -3.073,-0.91897 -6.375,-0.82798 -2.521,0.0728 -3.376,0.0546 -3.968,-0.20017 -0.415,-0.17288 -1.543,-1.14644 -2.532,-2.15639 -2.139,-2.18369 -2.563,-2.49304 -3.843,-2.90248 -1.1578,-0.37305 -3.7939,-0.41854 -5.2503,-0.0819 -1.3088,0.30026 -0.4322,2.30197 -0.0883,2.81149 z"
                 inkscape:connector-curvature="0" />
            <path
                 id="path23123"
                 style="opacity:0.1;fill:#342216;fill-opacity:1"
                 d="m 348.0576,149.30282 c -0.9857,-0.0182 -2.0218,0.0364 -2.75,0.20017 -1.3088,0.30026 -0.4063,2.30197 -0.0625,2.82059 0.3117,0.48223 0.8431,1.3739 1.3438,2.30197 0.5006,0.91897 1.3544,2.39295 1.875,3.26643 0.5205,0.87347 1.4317,2.63862 2.0311,4.03981 0.6,1.4012 1.168,2.74781 1.281,2.98437 0.113,0.23657 0.092,0.66421 0.563,1.3648 0.187,0.52773 0.428,1.18283 0.562,1.47399 0.135,0.29116 0.728,1.77424 1.313,3.27553 0.585,1.49218 1.198,2.95707 1.375,3.26643 0.177,0.30935 0.339,0.6824 0.344,0.80068 0.005,0.11828 0.274,0.7188 0.593,1.3648 1.869,3.74866 2.949,6.71483 5.563,16.25935 0.886,3.23913 1.822,7.88856 2.219,10.63637 0.076,0.52772 0.323,2.31106 0.437,3.01166 0.115,0.7006 0.454,2.41115 0.531,3.69407 0.077,1.28291 0.318,4.23089 0.625,6.68753 0.308,2.44755 0.554,5.75947 0.688,7.45182 0.288,3.63948 1.272,4.98608 1.5,5.5411 0.562,1.36481 1.071,2.8206 1.687,3.26643 0.28,0.20927 0.847,0.78249 1.282,1.28292 0.434,0.49132 2.663,2.12909 5,3.4393 0.956,0.53682 3.191,2.0836 5.437,3.07535 0.134,0 1.526,0.58232 3.281,1.16464 2.403,1.05544 3.205,0.93716 5.563,1.56497 0.895,0.18197 2.609,0.78249 3.25,0.93716 0.641,0.14558 1.587,0.44584 2.75,0.79159 1.628,0.35485 2.499,0.53682 4.094,1.11004 1.744,0.36395 3.234,0.94626 3.843,0.99176 0.609,0.0546 1.693,0.27296 2.438,0.49132 0.745,0.20927 2.419,0.56412 3.437,0.64601 1.019,0.25476 2.5,0.49133 2.938,0.54592 0.438,0.0546 1.418,0.19108 2.187,0.30936 1.826,0.29116 7.527,0.83708 10.532,1.00085 1.99,0.10009 6.543,0.37305 16.282,0.48223 3.43,0.0364 6.6,0.29116 8.22,0.13648 1.51,-0.13648 2.96,-0.22746 3.25,-0.20017 0.28,0.0364 0.77,-0.0182 1.06,-0.10918 0.32,-0.10009 6.36,-0.77339 6.97,-0.82798 0.61,-0.0455 8.95,-2.17459 9.16,-2.32927 0.2,-0.15467 3.88,-1.3193 4.78,-1.51038 2.93,-0.61871 2.99,-1.22832 5.78,-1.81973 1.3,-0.57322 2.49,-1.04635 2.62,-1.04635 0.14,0 1.05,-0.46404 2,-1.00086 2.34,-1.31021 8.66,-5.13166 9.1,-5.62299 0.43,-0.50042 1,-1.08274 1.28,-1.28291 0.61,-0.44584 1.69,-1.90163 2.25,-3.26643 0.23,-0.55502 1.02,-2.23827 1.31,-5.88685 0.13,-1.69235 0.47,-5.08616 0.78,-7.53371 0.31,-2.45664 0.64,-5.5138 0.72,-6.79672 0.08,-1.28291 0.23,-2.91158 0.34,-3.61217 0.12,-0.7006 0.27,-1.69236 0.35,-2.22008 0.09,-0.63691 0.35,-1.69236 0.5,-2.50214 -1.93,1.71965 -3.77,3.54849 -5.75,5.17715 -18.47,16.20476 -46.68,23.28354 -70.971,14.35773 -29.648,-10.23603 -44.595,-37.45019 -54.063,-63.31775 -0.069,-0.0819 -0.146,-0.11829 -0.218,-0.20018 -2.184,-2.55673 -3.085,-3.33011 -4.282,-3.75775 -2.185,-0.78249 -3.073,-0.91897 -6.375,-0.81888 -2.521,0.0728 -3.376,0.0455 -3.968,-0.20018 -0.415,-0.17287 -1.543,-1.15553 -2.532,-2.16548 -2.139,-2.18369 -2.563,-2.48394 -3.843,-2.89338 -0.5792,-0.19108 -1.5146,-0.27296 -2.5004,-0.29116 z"
                 inkscape:connector-curvature="0" />
            <path
                 id="path1338"
                 sodipodi:nodetypes="cccccccccccccccccccccccccccccccccccccccccccccccccccccccccccccccccccccccccccccccccccccccccccccccccccccccccccccccccccccccccccccccccccccccccccccccccccccccccccccccccccccccccccccccccccccccccccccccccccccccccccccccccccccccccccccccccccccccccccccccccccccccccccccccccccccccccccccccccccccccccccccccccccccccccccccccccccccccccccccccccccccccccccccccccccccccccccccccccccccccccccccccccccccccccccccccccccccccccccccccccccccccccccccccccccccccccccccccccccccccccccccccccccccccccccccccccccc"
                 style="fill:#b89c6e;fill-opacity:1"
                 d="m 351.458,130.05 c -0.059,0.30026 -0.719,1.15553 -1.4995,1.91072 -1.5038,1.4376 -4.8508,5.5866 -5.25,6.05063 -0.3992,0.46403 -0.9118,1.15553 -1.125,1.53768 -0.2132,0.38214 -1.0374,1.23742 -1.375,1.90162 -0.3376,0.67331 -0.7172,1.36481 -0.8437,1.53768 -0.94202,1.30111 -1.1843,3.76686 -0.50005,5.17715 0.26035,0.53682 0.91965,0.90987 1.3438,1.33751 0.8876,0.50953 2.0623,2.0472 2.4062,2.55673 0.3116,0.48223 0.8431,1.3739 1.3437,2.30197 0.5006,0.92806 1.3544,2.39295 1.875,3.27552 0.5206,0.87348 1.4317,2.72051 2.0313,4.12171 0.5992,1.4012 1.1682,2.7478 1.2812,2.98437 0.113,0.22746 0.376,0.83708 0.562,1.3648 0.187,0.51862 0.429,1.18283 0.563,1.47399 0.134,0.29115 0.727,1.77424 1.313,3.27552 0.585,1.49219 1.197,2.95708 1.374,3.26643 0.178,0.30936 0.339,0.6824 0.344,0.80069 0.005,0.10918 0.275,0.71879 0.594,1.3648 1.869,3.74866 3.043,7.23345 5.656,16.76887 0.887,3.23914 1.916,8.06144 2.313,10.80924 0.076,0.51863 0.229,1.54678 0.343,2.24738 0.115,0.7006 0.267,2.32016 0.344,3.61218 0.077,1.28291 0.411,4.31277 0.719,6.76032 0.308,2.45664 0.648,5.84135 0.781,7.53371 0.288,3.64857 1.084,5.33183 1.313,5.88685 0.562,1.3648 1.446,2.7387 2.062,3.18454 0.28,0.20927 0.847,0.78249 1.281,1.28291 0.435,0.49133 2.664,2.1291 5,3.43931 0.956,0.53682 3.192,2.0836 5.438,3.07535 0.134,0 1.526,0.58232 3.281,1.16463 2.402,1.05545 3.423,1.19193 5.781,1.81974 0.896,0.18197 2.609,0.78249 3.25,0.93717 0.642,0.15467 1.588,0.44583 2.75,0.79158 1.629,0.35485 2.499,0.53682 4.094,1.11004 1.745,0.36395 3.235,0.94626 3.844,1.00086 0.609,0.0455 1.693,0.26386 2.438,0.48223 0.744,0.20927 2.418,0.56411 3.437,0.6551 1.019,0.24567 2.499,0.48223 2.937,0.53682 0.439,0.0546 1.419,0.19108 2.188,0.30936 1.826,0.29116 7.526,0.83708 10.531,1.00085 1.991,0.10919 6.543,0.37305 16.283,0.48223 3.43,0.0364 6.97,-0.0546 8.59,-0.20017 1.51,-0.14558 2.97,-0.22746 3.25,-0.20017 0.29,0.0273 0.77,-0.0273 1.06,-0.10918 0.33,-0.10009 6.36,-0.77339 6.97,-0.82798 0.61,-0.0546 8.96,-2.17459 9.16,-2.32927 0.2,-0.16377 3.89,-1.3193 4.78,-1.51038 2.94,-0.61871 2.99,-1.22832 5.78,-1.81973 1.31,-0.57322 2.49,-1.05545 2.63,-1.05545 0.13,0 1.04,-0.45494 2,-0.99176 2.33,-1.31021 8.66,-5.13166 9.09,-5.63208 0.44,-0.49133 1,-1.07365 1.28,-1.27382 0.62,-0.45493 1.5,-1.81974 2.06,-3.18454 0.23,-0.55502 1.03,-2.23828 1.32,-5.88685 0.13,-1.69235 0.47,-5.08616 0.78,-7.53371 0.31,-2.45665 0.64,-5.5138 0.72,-6.79672 0.07,-1.28291 0.23,-2.91158 0.34,-3.61218 0.12,-0.70059 0.27,-1.69235 0.34,-2.22008 0.4,-2.7387 1.43,-7.5974 2.32,-10.82743 2.61,-9.54452 3.78,-12.99292 5.65,-16.75068 0.32,-0.64601 0.59,-1.27382 0.6,-1.3921 0,-0.11828 0.16,-0.45493 0.34,-0.77339 0.18,-0.30935 0.79,-1.80154 1.38,-3.29372 0.58,-1.50128 1.17,-2.94797 1.31,-3.23913 0.13,-0.29116 0.41,-0.95536 0.59,-1.48309 0.19,-0.52772 0.42,-1.15553 0.53,-1.3921 0.12,-0.23656 0.69,-1.55587 1.28,-2.95707 0.6,-1.4012 1.55,-3.27553 2.07,-4.149 0.52,-0.87347 1.34,-2.34746 1.84,-3.27553 0.5,-0.91896 1.16,-1.96531 1.47,-2.30196 0.31,-0.33666 0.56,-0.80979 0.56,-1.07365 0,-0.47313 0.92,-1.10094 2.06,-1.68326 0.51,-0.42763 0.74,-0.57321 1,-1.11004 0.38,-0.77338 0.48,-1.25561 0.38,-2.38385 -0.13,-1.50128 -0.91,-3.80325 -1.84,-5.48651 -1.81,-3.26643 -4.46,-7.6247 -4.94,-8.13422 -0.2,-0.20927 -0.43,0.6733 -0.13,1.21922 0.18,0.31846 1.1,1.84703 2.03,3.38471 2.08,3.43021 2.31,3.97613 2.91,5.35003 0.16,0.36395 1.09,3.31192 1.09,4.37647 0.01,0.6369 -0.17,1.05544 -0.68,1.61956 -0.97,1.06455 -1.82,1.35571 -3.13,1.05545 -1.45,-0.33665 -4.09,-0.31845 -5.25,0.0546 -1.28,0.40944 -1.67,0.7188 -3.81,2.90248 -0.99,1.00996 -2.15,1.98352 -2.56,2.15639 -0.6,0.25476 -1.45,0.30026 -3.97,0.22747 -3.3,-0.091 -4.19,0.0182 -6.38,0.80068 -1.19,0.42764 -2.09,1.21923 -4.28,3.77596 -1.36,1.59227 -2.06,1.76514 -7.53,1.76514 -4.49,0 -7.64,0.31846 -8.16,0.65511 -0.74,0.26386 -1.41,0.85527 -2.31,1.64686 -0.89,0.80068 -2.07,1.74695 -2.62,2.1018 -0.96,0.6278 -1.09,0.6824 -2.85,0.60051 -1.02,-0.0455 -3.06,-0.39125 -4.62,-0.76429 -3.21,-0.77339 -5.53,-0.89167 -7.03,-0.34575 -0.52,0.19107 -0.53,0.23656 -1.1,0.54592 -0.98,0.60051 -1.55,0.89167 -2.9,1.75605 -2.71,1.73784 -3.63,1.98351 -6.03,1.71055 -1.08,-0.12738 -1.52,-0.30936 -2.85,-1.28292 -0.86,-0.62781 -1.9,-1.31021 -2.34,-1.50128 -0.75,-0.32755 -0.9,-0.32755 -2,0.0273 -0.65,0.20927 -2.07,0.86437 -3.158,1.44669 -1.09,0.58231 -2.378,1.17373 -2.875,1.3375 -0.497,0.15468 -1.407,0.29116 -2,0.28206 -1.443,-0.0182 -4.298,-1.17373 -5.969,-2.41115 -1.76,-1.31021 -2.727,-1.64686 -4.312,-1.53768 -1.866,0.12739 -3.902,0.53683 -4.844,0.99176 -0.452,0.21837 -1.41,0.50043 -2.125,0.62781 -0.715,0.12738 -1.569,0.32755 -1.906,0.42764 -0.337,0.091 -1.21,0.0728 -1.937,-0.0273 -1.505,-0.21837 -2.414,-0.83708 -3.938,-2.70231 -1.884,-2.31106 -4.5,-2.7114 -9.625,-1.48308 -1.557,0.37304 -3.603,0.71879 -4.625,0.77339 -1.752,0.0819 -1.882,0.0546 -2.844,-0.57322 -0.554,-0.36395 -1.731,-1.31021 -2.625,-2.1018 -0.894,-0.80068 -1.918,-1.55587 -2.281,-1.67416 -1.449,-0.48223 -3.669,-0.6551 -8.156,-0.6551 -5.47,0 -6.204,-0.17288 -7.563,-1.76515 -2.183,-2.55673 -3.084,-3.32102 -4.281,-3.75775 -2.186,-0.78249 -3.074,-0.91897 -6.375,-0.81888 -2.521,0.0728 -3.376,0.0455 -3.969,-0.20018 -0.414,-0.17287 -1.542,-1.15553 -2.531,-2.16548 -2.139,-2.18369 -2.564,-2.48394 -3.844,-2.89338 -1.1573,-0.37305 -3.7934,-0.41854 -5.2498,-0.091 -1.3087,0.30026 -2.1601,0.0182 -3.125,-1.04635 -0.5132,-0.57322 -0.6895,-0.99176 -0.6874,-1.61957 0.004,-1.15553 0.4957,-2.7387 1.2812,-4.1581 0.3564,-0.6369 0.7204,-1.30111 0.8125,-1.47398 0.092,-0.17288 1.3877,-1.65596 1.6563,-1.93802 0.2685,-0.28206 0.876,-1.12824 1.375,-1.90163 0.4989,-0.77339 1.204,-1.62866 1.5624,-1.90162 0.3585,-0.28206 1.841,-2.16549 2.6878,-3.04806 l 0.625,-0.65511 c 0,0 0.118,-1.49218 0.093,-1.3648 z m -4.0932,19.81694 c 1.8752,-0.11829 3.9172,0.75519 6.4062,3.55758 0.473,0.53682 1.352,1.22832 1.969,1.56498 1.118,0.60961 1.137,0.62781 5.094,0.62781 h 3.968 l 1.563,0.70969 c 0.991,0.44584 1.764,0.94627 2.093,1.3921 1.017,1.35571 3.134,3.26643 4.157,3.74866 0.989,0.47313 1.261,0.51862 6.156,0.54592 7.039,0.0364 7.423,0.10919 10.219,2.52944 2.752,2.38385 3.57,2.7205 6.187,2.52943 1.091,-0.0819 2.141,-0.21837 2.344,-0.30936 0.93,-0.44583 4.682,-1.11913 6.187,-1.11004 2.213,0.009 3.116,0.38215 4.407,1.87433 0.581,0.67331 1.637,1.61957 2.312,2.0745 1.172,0.80069 1.294,0.81889 2.969,0.82798 1.93,0.009 4.41,-0.35484 5.344,-0.80068 1.197,-0.56412 2.494,-0.95536 3.75,-1.11004 2.387,-0.28206 2.96,-0.10918 5.25,1.51038 0.762,0.53682 2.155,1.31931 3.125,1.73785 1.686,0.7279 1.857,0.75519 3.531,0.61871 1.811,-0.13648 4.35,-1.07364 6.374,-2.32926 1.45,-0.89167 2.43,-1.05545 3.34,-0.53682 0.43,0.23656 0.34,0.27296 0.79,0.59141 0.33,0.30936 1.98,1.45579 3.09,1.79244 1.7,0.52773 2.72,0.59142 4.09,0.22747 1.29,-0.33665 1.75,-0.57322 5.16,-2.61132 2.68,-1.60137 3.12,-1.75605 5.03,-1.76515 1.51,-0.009 5.26,0.82798 6.19,1.13734 0.2,0.10008 1.25,0.23656 2.34,0.30935 2.62,0.19107 3.44,-0.14558 6.19,-2.52943 2.8,-2.42025 3.18,-2.52034 10.22,-2.55673 4.9,-0.0273 5.16,-0.0364 6.15,-0.50953 1.09,-0.51862 2.86,-2.11089 3.91,-3.50299 1.34,-1.76515 3.78,-2.42935 8.56,-2.32927 2.99,0.0637 3.05,0.0455 4.28,-0.59141 0.69,-0.36395 1.62,-1.08274 2.1,-1.62867 1.44,-1.61956 2.69,-2.68411 3.03,-2.92067 1.1,-0.64601 1.75,-0.56412 3.28,-0.51863 2.13,0.0728 2.62,0.43674 2.47,0.97356 -0.12,0.39124 -1.13,2.11999 -2.38,3.92153 -1.12,1.61957 -3.21,5.75947 -4.12,8.16152 -0.35,0.92807 -0.77,1.97442 -0.94,2.32927 -0.17,0.34575 -0.83,2.00171 -1.5,3.69406 -1.1,2.8115 -2.15,5.26814 -2.94,6.915 -1.38,2.90249 -2.22,5.08617 -3.37,8.64376 -1.24,3.82144 -3.07,10.73644 -3.97,14.97643 -0.94,4.44926 -0.9,4.1672 -1.16,6.86041 -0.76,8.00684 -0.95,9.92667 -1.15,11.0822 -0.12,0.7097 -0.3,2.00171 -0.38,2.87518 -0.47,5.60479 -1.72,9.62641 -2.62,10.77285 -1.15,1.47398 -4.09,3.57578 -6.03,4.89509 -0.2,-0.87348 0.92,-11.38246 1.15,-13.1385 0.34,-1.72875 1.24,-7.91586 1.66,-11.37336 0.12,-1.01905 0.3,-2.30197 0.41,-2.87518 0.1,-0.56412 0.32,-1.80154 0.46,-2.75691 0.14,-0.94626 0.41,-2.56582 0.6,-3.57578 0.19,-1.01905 0.45,-2.41115 0.56,-3.10265 0.12,-0.7006 0.37,-2.03811 0.56,-2.98437 0.36,-1.73785 0.47,-2.17458 1.03,-4.69492 0.18,-0.75519 0.5,-2.30197 0.72,-3.4393 0.85,-4.2036 2.71,-10.92752 3.91,-14.04837 0.36,-0.93717 1.01,-2.67502 1.44,-3.86694 0.86,-2.36566 1.12,-2.99347 2.62,-6.67844 0.56,-1.3739 1.08,-2.7387 1.16,-3.03896 0.08,-0.30026 1.14,-2.52943 1.37,-3.35741 0.04,-0.14558 -0.36,-1.31022 -1.78,2.12909 -1.47,3.57578 -4.79,12.11945 -5.4,13.87549 -0.24,0.67331 -0.73,1.97442 -1.07,2.90248 -0.33,0.92807 -0.81,2.45665 -1.06,3.41201 -1.07,4.1308 -1.74,6.86041 -1.94,7.81577 -0.47,2.35656 -0.91,4.61303 -1.4,6.99689 -0.29,1.3921 -0.64,3.23913 -0.78,4.1217 -0.14,0.89167 -0.41,2.41116 -0.6,3.35742 -0.3,1.50128 -0.71,3.80325 -1.44,8.49817 -0.32,2.0927 -0.62,4.34917 -0.96,7.02419 -0.18,1.39209 -0.68,3.98522 -0.82,4.92238 -0.13,0.92807 -0.5,4.08531 -0.65,4.60394 -0.27,2.59312 -0.31,1.20102 -0.53,4.23999 -0.23,3.02076 -0.47,5.79586 -0.54,5.91414 0,0 0.01,0.0273 0,0.0273 -0.09,0.0546 -0.53,0.35485 -0.56,0.36394 -0.35,0.14558 -1.37,0.7188 -2.25,1.25562 -0.88,0.52773 -2.03,1.08275 -2.56,1.24652 -0.53,0.16378 -1.56,0.55502 -2.31,0.85528 -0.87,0.35485 -2.96,0.93716 -3,0.88257 -0.29,-0.41854 0.35,-11.37335 0.5,-13.1385 0.24,-1.69235 0.82,-7.76118 1.06,-11.14589 0.07,-0.99176 0.17,-2.28377 0.25,-2.83879 0.08,-0.56412 0.22,-1.77424 0.31,-2.70231 0.09,-0.93716 0.3,-2.50214 0.44,-3.49389 0.14,-1.00086 0.33,-2.36566 0.41,-3.04806 0.07,-0.6824 0.26,-1.99261 0.4,-2.92978 0.27,-1.70145 0.32,-2.15639 0.75,-4.63123 0.13,-0.74609 0.4,-2.26557 0.56,-3.38471 0.63,-4.1399 2.15,-10.78194 3.19,-13.8755 0.31,-0.92806 0.85,-2.62952 1.22,-3.81234 0.74,-2.34747 0.97,-2.99347 2.28,-6.65114 0.49,-1.36481 0.94,-2.72051 1,-3.01167 0.06,-0.30025 1.03,-2.47484 1.22,-3.30282 0.03,-0.13648 -0.45,-1.27382 -1.69,2.13819 -1.28,3.54849 -4.16,12.01936 -4.68,13.75721 -0.2,0.66421 -0.62,1.98352 -0.91,2.90248 -0.29,0.91897 -0.68,2.42025 -0.88,3.35742 -0.85,4.06711 -1.38,6.76032 -1.53,7.70658 -0.34,2.31107 -0.69,4.53115 -1.06,6.87861 -0.22,1.3648 -0.47,3.19364 -0.56,4.06711 -0.1,0.86438 -0.3,2.33836 -0.44,3.26643 -0.22,1.48309 -0.49,3.74866 -0.97,8.36169 -0.21,2.0563 -0.39,4.25819 -0.59,6.87861 -0.11,1.3648 -0.48,3.92153 -0.56,4.8314 -0.09,0.91897 -0.31,4.01252 -0.44,4.52205 -0.14,2.53853 -0.22,1.15553 -0.28,4.1217 -0.07,2.89338 -0.19,5.47741 -0.25,5.68668 -0.01,0.009 -0.05,0.0273 -0.07,0.0273 -0.74,0.20927 -2.56,0.77339 -4.09,1.22833 -1.52,0.45493 -2.92,0.81888 -3.09,0.81888 -0.19,0 -1.38,0.31845 -1.38,0.31845 l -2.22,0.53682 c -0.29,0.0728 -0.65,0.19108 -1,0.28206 -0.31,-0.51862 -0.45,-11.00031 -0.43,-12.70176 0.12,-1.66506 0.22,-7.5974 0.21,-10.89113 0,-0.97356 0.06,-2.21098 0.1,-2.7569 0.04,-0.55502 0.07,-1.73785 0.09,-2.64772 0.03,-0.90986 0.09,-2.46574 0.16,-3.4393 0.07,-0.97356 0.16,-2.32016 0.19,-2.98437 0.02,-0.6733 0.11,-1.96531 0.18,-2.87518 0.14,-1.67416 0.19,-2.0836 0.44,-4.52205 0.08,-0.72789 0.23,-2.22918 0.31,-3.32102 0.33,-4.05801 1.35,-10.58177 2.16,-13.64803 0.24,-0.92806 0.68,-2.64771 0.97,-3.81234 0.57,-2.32927 0.74,-2.93888 1.78,-6.56926 0.39,-1.3557 0.74,-2.69321 0.78,-2.98436 0.04,-0.29116 0.84,-2.49304 0.97,-3.30283 0.02,-0.13648 -0.51,-1.20102 -1.5,2.19279 -1.03,3.53029 -3.32,11.92837 -3.72,13.64802 -0.15,0.65511 -0.43,1.92893 -0.66,2.83879 -0.22,0.91897 -0.52,2.41116 -0.65,3.33012 -0.56,4.01252 -0.9,6.63294 -0.97,7.56101 -0.18,2.27467 -0.36,4.44926 -0.56,6.74213 -0.12,1.3375 -0.22,3.12994 -0.25,3.97612 -0.03,0.85528 -0.12,2.30197 -0.19,3.22094 -0.12,1.44669 -0.23,3.67586 -0.38,8.18881 -0.06,2.00171 -0.11,4.149 -0.12,6.70573 -0.01,1.33751 -0.17,3.83055 -0.19,4.72222 -0.02,0.89167 -0.03,3.93063 -0.12,4.43106 0.04,2.47484 -0.12,1.15553 0.03,4.03982 0.13,2.63861 0.18,4.70402 0.15,5.17715 -0.71,0.19107 -1.45,0.39124 -1.96,0.53682 -1.24,0.35485 -2.73,0.59142 -3.97,0.65511 -1.09,0.0546 -3.18,0.25476 -4.66,0.42763 -0.42,0.0455 -1.05,0.0455 -1.59,0.0819 -0.33,-0.49133 -1.25,-11.46434 -1.35,-13.1294 0.01,-1.63776 -0.3,-7.41543 -0.53,-10.63636 -0.07,-0.94627 -0.12,-2.16549 -0.12,-2.70231 0,-0.53683 -0.03,-1.70146 -0.07,-2.58403 -0.04,-0.89167 -0.09,-2.40205 -0.09,-3.35741 0,-0.95537 -0.01,-2.27468 -0.03,-2.92978 -0.02,-0.65511 -0.01,-1.91982 0,-2.81149 0.02,-1.64687 0.02,-2.0745 0.09,-4.46746 0.03,-0.7188 0.03,-2.19278 0.03,-3.26643 0.03,-3.98522 0.58,-10.40889 1.13,-13.45695 0.16,-0.90987 0.44,-2.62042 0.62,-3.77596 0.37,-2.30196 0.5,-2.91158 1.22,-6.51466 0.27,-1.3375 0.49,-2.66591 0.5,-2.95707 0.02,-0.28206 0.62,-2.49304 0.69,-3.29372 0.01,-0.14558 -0.56,-1.12824 -1.25,2.24737 -0.72,3.503 -2.28,11.82829 -2.53,13.52975 -0.1,0.646 -0.29,1.91072 -0.44,2.81149 -0.14,0.90987 -0.28,2.39296 -0.34,3.30282 -0.25,3.94883 -0.4,6.54196 -0.41,7.45183 -0.01,2.22008 -0.03,4.36737 -0.06,6.62384 -0.02,1.31021 0,3.05716 0.03,3.89424 0.03,0.82798 0.04,2.22918 0.03,3.12995 -0.01,1.41939 0.05,3.60307 0.22,8.01594 0.08,1.96531 0.18,4.06711 0.34,6.56925 0.09,1.30111 0.09,3.75775 0.13,4.63123 0.04,0.87347 0.27,3.82145 0.22,4.32187 0.21,2.41116 -0.05,1.11914 0.28,3.92154 0.33,2.78419 0.57,5.35002 0.53,5.4956 -3.42,0.21837 -7.84,0.41854 -9.09,0.41854 -1.64,0.009 -6.679,-0.0819 -7.128,-0.0819 h -0.812 l 0.031,-3.4393 c 0.037,-2.25647 0.22,-8.37079 0.187,-19.13453 -0.041,-13.91189 -0.048,-29.74361 -0.031,-39.35182 0.007,-3.62127 -0.045,-8.33439 -0.125,-10.46348 -0.132,-3.55759 -0.203,-3.86695 -0.594,-3.86695 -0.409,0 -0.399,1.14644 -0.406,30.81725 -0.008,36.16727 -0.121,40.09791 -0.156,41.99953 l -0.062,3.4393 -7.282,-0.48223 c -2.395,-0.14557 -5.898,-0.59141 -9.031,-1.02815 0.009,-0.6642 0.118,-2.39295 0.344,-4.88599 0.262,-2.89338 0.013,-1.58317 0.156,-4.06711 -0.07,-0.50953 0.047,-3.56669 0.063,-4.46746 0.015,-0.89167 -0.047,-3.40291 0,-4.74041 0.089,-2.57493 0.142,-4.74952 0.156,-6.76942 0.03,-4.54025 -0.004,-6.76033 -0.063,-8.21612 -0.037,-0.91896 -0.065,-2.39295 -0.062,-3.24823 0.003,-0.85527 -0.029,-2.65681 -0.094,-4.00342 -0.111,-2.32016 -0.224,-4.51295 -0.313,-6.79672 -0.036,-0.93716 -0.253,-3.57578 -0.656,-7.6247 -0.093,-0.92806 -0.345,-2.45664 -0.531,-3.37561 -0.186,-0.92806 -0.438,-2.23827 -0.563,-2.90248 -0.327,-1.73785 -2.268,-10.24512 -3.156,-13.8209 -0.853,-3.4393 -1.424,-2.38386 -1.406,-2.24738 0.102,0.81889 0.815,3.02987 0.844,3.33012 0.029,0.29116 0.321,1.67416 0.656,3.03896 0.899,3.68497 1.025,4.30368 1.5,6.65114 0.238,1.18283 0.606,2.93888 0.812,3.86694 0.69,3.11175 1.493,9.7083 1.657,13.79361 0.044,1.10094 0.108,2.62042 0.156,3.35742 0.16,2.45664 0.175,2.89338 0.25,4.57663 0.041,0.91897 0.091,2.20189 0.094,2.87519 0.002,0.6642 0.032,2.02901 0.062,3.01166 0.031,0.98266 0.044,2.52034 0.031,3.43931 -0.012,0.91896 -0.016,2.11999 0,2.67501 0.017,0.54592 0.01,1.81064 -0.031,2.7842 -0.138,3.31192 -0.245,9.27156 -0.187,10.94572 -0.048,1.70145 -0.607,12.03756 -0.938,12.68356 -2.993,-0.42764 -5.64,-0.85527 -5.968,-0.93716 -0.129,-0.0364 -1.348,-0.26386 -2.407,-0.45494 -1.377,-0.19107 -1.5,-0.33665 -2.5,-0.57321 -0.812,-0.22747 -2.087,-0.57322 -3.375,-0.93717 -0.05,-0.17287 0.01,-2.7569 0.156,-5.60479 0.15,-2.88428 -0.015,-1.56497 0.032,-4.03072 -0.09,-0.50952 -0.106,-3.52119 -0.125,-4.41286 -0.02,-0.89167 -0.182,-3.38471 -0.188,-4.71312 -0.01,-2.56583 -0.059,-4.73131 -0.125,-6.74212 -0.147,-4.50385 -0.227,-6.71483 -0.344,-8.16152 -0.073,-0.90987 -0.156,-2.36566 -0.187,-3.21184 -0.031,-0.85528 -0.164,-2.63862 -0.281,-3.98522 -0.201,-2.29287 -0.385,-4.46746 -0.563,-6.73303 -0.072,-0.92807 -0.408,-3.55759 -0.969,-7.56101 -0.129,-0.92806 -0.402,-2.42025 -0.624,-3.33012 -0.223,-0.90986 -0.538,-2.22008 -0.688,-2.87518 -0.395,-1.71965 -2.661,-10.09044 -3.688,-13.62073 -0.986,-3.38471 -1.523,-2.35656 -1.5,-2.21098 0.135,0.80978 0.898,3.00256 0.938,3.29372 0.04,0.29116 0.393,1.63776 0.781,2.98437 1.042,3.63038 1.215,4.27638 1.781,6.59655 0.285,1.16463 0.726,2.86608 0.969,3.78505 0.811,3.06626 1.833,9.59001 2.157,13.64803 0.087,1.09184 0.235,2.59312 0.312,3.33012 0.256,2.42935 0.297,2.87518 0.438,4.54934 0.077,0.90987 0.158,2.20188 0.187,2.86608 0.029,0.67331 0.119,2.01081 0.187,2.98437 0.069,0.97356 0.134,2.50214 0.157,3.41201 0.023,0.90987 0.087,2.12909 0.125,2.67501 0.038,0.54592 0.065,1.79244 0.062,2.75691 -0.008,3.30282 0.096,9.19877 0.219,10.86383 0.019,1.69235 -0.194,12.38331 -0.5,13.07481 -0.101,-0.0273 -0.625,-0.16378 -0.625,-0.16378 l -1.375,-0.31845 c -0.882,0 -3.006,-0.64601 -4.531,-1.11004 -1.525,-0.45494 -3.384,-0.99176 -4.125,-1.19193 -0.303,-0.0819 -1.164,-0.40944 -1.844,-0.62781 -0.065,-0.34575 -0.187,-2.67501 -0.25,-5.48651 -0.066,-2.96617 -0.144,-1.61956 -0.281,-4.149 -0.128,-0.50953 -0.352,-3.60308 -0.438,-4.52205 -0.086,-0.90986 -0.457,-3.46659 -0.562,-4.8314 -0.202,-2.62042 -0.379,-4.8314 -0.594,-6.8786 -0.483,-4.61304 -0.745,-6.88771 -0.969,-8.36169 -0.141,-0.92807 -0.343,-2.40206 -0.437,-3.26643 -0.094,-0.87348 -0.346,-2.70231 -0.563,-4.06711 -0.372,-2.34747 -0.716,-4.56754 -1.062,-6.88771 -0.142,-0.94626 -0.673,-3.63037 -1.531,-7.69749 -0.198,-0.94626 -0.586,-2.43844 -0.876,-3.35741 -0.289,-0.91897 -0.707,-2.23828 -0.906,-2.90248 -0.522,-1.73785 -3.4,-10.18143 -4.687,-13.72992 -1.237,-3.41201 -1.721,-2.30197 -1.688,-2.16549 0.195,0.82798 1.157,3.02987 1.219,3.33012 0.062,0.29116 0.512,1.61957 1,2.98437 1.31,3.65767 1.543,4.30368 2.281,6.65114 0.371,1.17373 0.908,2.88428 1.219,3.81235 1.037,3.09355 2.562,9.73559 3.188,13.87549 0.168,1.11914 0.431,2.63862 0.562,3.38472 0.437,2.47484 0.516,2.92977 0.781,4.63123 0.145,0.92806 0.328,2.24737 0.407,2.92977 0.078,0.6824 0.234,2.04721 0.374,3.03896 0.141,1.00086 0.347,2.56583 0.438,3.503 0.091,0.92806 0.234,2.13819 0.312,2.70231 0.079,0.55502 0.181,1.84703 0.25,2.83879 0.238,3.38471 0.816,9.45353 1.063,11.14589 0.147,1.75604 0.775,12.57438 0.5,13.08391 -0.559,-0.19108 -1.013,-0.31846 -1.437,-0.48224 -0.877,-0.35484 -1.867,-0.72789 -2.188,-0.80068 -0.321,-0.0728 -1.255,-0.51862 -2.094,-1.01905 -0.839,-0.50043 -1.913,-1.09184 -2.375,-1.31021 -0.198,-0.10009 -1.222,-0.81888 -1.906,-1.28292 -0.098,-0.60051 -0.302,-2.55673 -0.5,-5.23174 -0.223,-3.02076 -0.228,-1.62867 -0.5,-4.20359 -0.154,-0.51863 -0.553,-3.68497 -0.687,-4.61304 -0.135,-0.92806 -0.636,-3.49389 -0.813,-4.88599 -0.34,-2.66592 -0.645,-4.94059 -0.969,-7.02419 -0.726,-4.67672 -1.104,-6.97869 -1.406,-8.47087 -0.19,-0.94627 -0.485,-2.42025 -0.625,-3.30282 -0.14,-0.88258 -0.461,-2.73871 -0.75,-4.12171 -0.495,-2.36566 -0.969,-4.62213 -1.437,-6.96049 -0.192,-0.96446 -0.865,-3.64858 -1.938,-7.77028 -0.247,-0.94626 -0.724,-2.48394 -1.062,-3.41201 -0.339,-0.91896 -0.798,-2.22917 -1.032,-2.89338 -0.613,-1.74695 -3.963,-10.25422 -5.437,-13.8209 -1.416,-3.42111 -1.823,-2.24738 -1.781,-2.1018 0.237,0.82798 1.297,3.02077 1.374,3.32102 0.078,0.30026 0.598,1.64686 1.157,3.02077 1.501,3.66677 1.763,4.29458 2.625,6.65113 0.432,1.18283 1.077,2.92978 1.437,3.86695 1.2,3.10265 3.063,9.79928 3.907,13.98467 0.227,1.13734 0.579,2.65682 0.75,3.41201 0.567,2.51124 0.644,2.96617 1,4.69492 0.194,0.94627 0.447,2.29287 0.562,2.98437 0.114,0.6915 0.369,2.0654 0.562,3.07536 0.194,1.00085 0.485,2.60222 0.626,3.54848 0.14,0.94627 0.329,2.19279 0.437,2.75691 0.108,0.57321 0.284,1.86523 0.406,2.87518 0.417,3.4393 1.32,9.59911 1.657,11.31877 0.223,1.65596 1.184,10.70915 1.124,12.4197 -1.942,-1.3921 -4.031,-3.02076 -4.937,-4.1763 -0.887,-1.12823 -2.148,-5.16805 -2.625,-10.77284 -0.074,-0.88257 -0.254,-2.16549 -0.375,-2.87518 -0.198,-1.15554 -0.395,-3.08446 -1.156,-11.0913 -0.255,-2.67501 -0.216,-2.38386 -1.157,-6.85131 -0.609,-2.89338 -2.246,-9.38075 -2.812,-11.11859 -0.114,-0.34575 -0.471,-1.59227 -0.812,-2.75691 -1.009,-3.4484 -2.212,-6.58744 -3.719,-9.75379 -0.785,-1.64686 -1.835,-4.06711 -2.938,-6.8786 -0.664,-1.69236 -1.332,-3.37561 -1.5,-3.72136 -0.167,-0.35485 -0.585,-1.4012 -0.937,-2.33837 -0.906,-2.39295 -3.0039,-6.54195 -4.1252,-8.16152 -1.2464,-1.79244 -2.183,-3.4575 -2.5,-4.20359 -0.2789,-0.80978 1.3284,-0.72789 2.5,-0.80068 z"
                 inkscape:connector-curvature="0" />
            <g
                 transform="translate(220,0)"
                 id="g4136">
                <path
                     inkscape:connector-curvature="0"
                     d="m 163.781,158.72 c 0.744,-0.69 1.72,-0.93 2.178,-0.55 0.459,0.38 0.227,1.24 -0.517,1.92 -0.744,0.68 -1.719,0.93 -2.178,0.55 -0.456,-0.38 -0.229,-1.24 0.51,-1.92"
                     style="fill:#b96408"
                     id="path3449" />
                <path
                     inkscape:connector-curvature="0"
                     d="m 163.198,160.68 c 0.471,0.39 1.48,0.14 2.258,-0.57 0.777,-0.72 1.014,-1.61 0.543,-2 -0.469,-0.39 -1.475,-0.14 -2.252,0.57 -0.002,0 -0.005,0 -0.007,0.01 h -0.003 -0.005 c -0.772,0.72 -1.003,1.6 -0.534,1.99 z m 0.106,-0.1 c -0.444,-0.37 -0.221,-1.19 0.483,-1.84 h 0.001 c 10e-4,0 0.002,-0.01 0.003,-0.01 h 0.008 c 0.71,-0.65 1.65,-0.89 2.095,-0.52 0.446,0.37 0.217,1.2 -0.493,1.85 -0.71,0.65 -1.651,0.89 -2.097,0.52 z"
                     style="fill:#6c4a19"
                     id="path9260" />
                <path
                     inkscape:connector-curvature="0"
                     d="m 172.393,142.56 c 0.743,-0.68 1.719,-0.93 2.177,-0.55 0.459,0.38 0.227,1.24 -0.517,1.93 -0.744,0.68 -1.719,0.92 -2.178,0.54 -0.456,-0.37 -0.228,-1.23 0.51,-1.91"
                     style="fill:#b96408"
                     id="path3451" />
                <path
                     inkscape:connector-curvature="0"
                     d="m 171.81,144.52 c 0.47,0.39 1.479,0.14 2.257,-0.57 0.777,-0.71 1.014,-1.6 0.544,-1.99 -0.47,-0.39 -1.476,-0.14 -2.253,0.57 h -0.007 -0.003 c -0.002,0.01 -0.003,0.01 -0.005,0.01 -0.772,0.71 -1.003,1.6 -0.533,1.98 z m 0.105,-0.09 c -0.444,-0.37 -0.221,-1.2 0.483,-1.85 h 0.001 0.003 c 0.003,0 0.006,-0.01 0.008,-0.01 0.71,-0.65 1.65,-0.88 2.095,-0.52 0.446,0.37 0.217,1.21 -0.493,1.86 -0.71,0.65 -1.651,0.89 -2.097,0.52 z"
                     style="fill:#6c4a19"
                     id="path9262" />
                <path
                     inkscape:connector-curvature="0"
                     d="m 188.932,137.35 c 0.649,-0.77 1.584,-1.14 2.088,-0.82 0.504,0.31 0.386,1.2 -0.262,1.97 -0.649,0.77 -1.584,1.14 -2.088,0.83 -0.502,-0.32 -0.388,-1.2 0.256,-1.97"
                     style="fill:#b96408"
                     id="path3453" />
                <path
                     inkscape:connector-curvature="0"
                     d="m 188.611,139.38 c 0.517,0.32 1.485,-0.06 2.163,-0.87 0.678,-0.81 0.797,-1.72 0.279,-2.05 -0.516,-0.32 -1.481,0.06 -2.159,0.86 -0.002,0 -0.004,0.01 -0.006,0.01 h -0.003 c -0.001,0 -0.003,0 -0.004,0.01 -0.673,0.8 -0.786,1.71 -0.27,2.04 z m 0.092,-0.11 c -0.488,-0.31 -0.375,-1.16 0.238,-1.9 h 0.001 0.003 c 0.003,0 0.005,-0.01 0.007,-0.01 0.619,-0.73 1.52,-1.09 2.009,-0.79 0.491,0.31 0.372,1.17 -0.247,1.9 -0.619,0.74 -1.521,1.1 -2.011,0.8 z"
                     style="fill:#6c4a19"
                     id="path9276" />
                <path
                     inkscape:connector-curvature="0"
                     d="m 202.323,145.29 c 0.451,-0.9 1.275,-1.48 1.838,-1.29 0.564,0.2 0.655,1.08 0.203,1.99 -0.451,0.9 -1.275,1.47 -1.838,1.28 -0.562,-0.19 -0.655,-1.07 -0.208,-1.97"
                     style="fill:#b96408"
                     id="path3455" />
                <path
                     inkscape:connector-curvature="0"
                     d="m 202.481,147.33 c 0.578,0.2 1.431,-0.4 1.903,-1.34 0.472,-0.94 0.375,-1.86 -0.203,-2.06 -0.578,-0.19 -1.429,0.4 -1.901,1.34 h -0.005 c -0.001,0.01 -0.002,0.01 -0.002,0.01 h -0.003 c -0.467,0.95 -0.366,1.85 0.211,2.05 z m 0.064,-0.13 c -0.547,-0.18 -0.633,-1.03 -0.208,-1.89 h 0.001 c 0.001,-0.01 0.001,-0.01 0.002,-0.01 0.002,0 0.003,-0.01 0.005,-0.01 0.431,-0.86 1.224,-1.42 1.772,-1.23 0.548,0.19 0.631,1.05 0.2,1.91 -0.431,0.86 -1.224,1.42 -1.772,1.23 z"
                     style="fill:#6c4a19"
                     id="path9278" />
                <path
                     inkscape:connector-curvature="0"
                     d="m 158.511,132.3 c 0.743,-0.68 1.719,-0.93 2.177,-0.55 0.459,0.38 0.227,1.24 -0.517,1.93 -0.744,0.68 -1.719,0.92 -2.178,0.54 -0.456,-0.37 -0.228,-1.23 0.51,-1.91"
                     style="fill:#b96408"
                     id="path3457" />
                <path
                     inkscape:connector-curvature="0"
                     d="m 157.927,134.26 c 0.471,0.39 1.48,0.14 2.258,-0.57 0.777,-0.71 1.014,-1.6 0.544,-1.99 -0.47,-0.39 -1.476,-0.14 -2.253,0.57 h -0.007 -0.003 c -0.002,0 -0.003,0.01 -0.005,0.01 -0.772,0.71 -1.003,1.6 -0.534,1.98 z m 0.106,-0.09 c -0.444,-0.37 -0.221,-1.2 0.483,-1.85 h 0.001 0.003 c 0.003,0 0.006,-0.01 0.008,-0.01 0.71,-0.65 1.65,-0.88 2.095,-0.52 0.446,0.37 0.217,1.21 -0.493,1.86 -0.71,0.65 -1.651,0.89 -2.097,0.52 z"
                     style="fill:#6c4a19"
                     id="path9280" />
                <path
                     inkscape:connector-curvature="0"
                     d="m 182.811,151.21 c 0.701,-0.73 1.66,-1.03 2.141,-0.68 0.48,0.35 0.301,1.22 -0.401,1.95 -0.701,0.72 -1.66,1.03 -2.141,0.68 -0.478,-0.35 -0.302,-1.22 0.394,-1.95"
                     style="fill:#b96408"
                     id="path3459" />
                <path
                     inkscape:connector-curvature="0"
                     d="m 182.348,153.2 c 0.493,0.36 1.485,0.05 2.218,-0.71 0.733,-0.76 0.916,-1.66 0.423,-2.02 -0.492,-0.36 -1.482,-0.05 -2.214,0.7 -0.002,0 -0.005,0 -0.007,0.01 h -0.003 -0.005 c -0.728,0.76 -0.904,1.66 -0.412,2.02 z m 0.099,-0.1 c -0.465,-0.34 -0.293,-1.18 0.371,-1.87 0,0 10e-4,0 10e-4,-0.01 h 0.003 c 0.003,0 0.005,0 0.008,-0.01 0.668,-0.68 1.593,-0.98 2.059,-0.64 0.468,0.34 0.289,1.19 -0.38,1.88 -0.669,0.69 -1.595,0.99 -2.062,0.65 z"
                     style="fill:#6c4a19"
                     id="path9282" />
                <path
                     inkscape:connector-curvature="0"
                     d="m 127.2994,144.32 c 0.5598,-0.84 1.4488,-1.31 1.9843,-1.05 0.5356,0.26 0.516,1.15 -0.0438,1.99 -0.5597,0.84 -1.4487,1.31 -1.9843,1.05 -0.5337,-0.26 -0.5166,-1.14 0.0384,-1.98"
                     style="fill:#b96408"
                     id="path3461" />
                <path
                     inkscape:connector-curvature="0"
                     d="m 127.2028,146.36 c 0.5501,0.27 1.4701,-0.21 2.0554,-1.09 0.5853,-0.88 0.6026,-1.8 0.0526,-2.07 -0.5485,-0.26 -1.4663,0.22 -2.0518,1.09 -0.002,0 -0.004,0.01 -0.006,0.01 h -0.002 c -0.001,0 -0.002,0.01 -0.003,0.01 -0.5803,0.87 -0.5927,1.79 -0.0446,2.05 z m 0.0794,-0.12 c -0.519,-0.25 -0.4996,-1.1 0.0289,-1.9 h 0.001 c 8e-4,0 0.002,-0.01 0.002,-0.01 0.002,0 0.004,0 0.006,-0.01 0.5345,-0.79 1.3908,-1.25 1.9108,-1 0.5211,0.25 0.4972,1.12 -0.037,1.92 -0.5342,0.8 -1.391,1.26 -1.9122,1 z"
                     style="fill:#6c4a19"
                     id="path9284" />
                <path
                     inkscape:connector-curvature="0"
                     d="m 156.607,147.05 c 0.744,-0.68 1.719,-0.92 2.178,-0.55 0.458,0.38 0.226,1.25 -0.518,1.93 -0.743,0.68 -1.719,0.92 -2.177,0.54 -0.457,-0.37 -0.229,-1.23 0.51,-1.91"
                     style="fill:#b96408"
                     id="path3463" />
                <path
                     inkscape:connector-curvature="0"
                     d="m 156.024,149.02 c 0.47,0.38 1.479,0.13 2.257,-0.58 0.778,-0.71 1.015,-1.6 0.544,-1.99 -0.469,-0.39 -1.476,-0.14 -2.253,0.57 h -0.007 -0.003 c -0.001,0.01 -0.003,0.01 -0.005,0.01 -0.772,0.71 -1.002,1.6 -0.533,1.99 z m 0.105,-0.1 c -0.444,-0.37 -0.221,-1.2 0.483,-1.85 h 0.002 0.003 c 0.002,0 0.005,-0.01 0.008,-0.01 0.709,-0.64 1.649,-0.88 2.094,-0.52 0.446,0.37 0.217,1.21 -0.493,1.86 -0.709,0.65 -1.651,0.89 -2.097,0.52 z"
                     style="fill:#6c4a19"
                     id="path9286" />
                <path
                     inkscape:connector-curvature="0"
                     d="m 142.409,142.12 c 0.744,-0.68 1.72,-0.92 2.178,-0.54 0.458,0.38 0.227,1.24 -0.517,1.92 -0.744,0.68 -1.72,0.93 -2.178,0.55 -0.457,-0.38 -0.229,-1.24 0.51,-1.92"
                     style="fill:#b96408"
                     id="path3465" />
                <path
                     inkscape:connector-curvature="0"
                     d="m 141.826,144.09 c 0.471,0.39 1.48,0.14 2.257,-0.58 0.778,-0.71 1.015,-1.6 0.544,-1.99 -0.469,-0.39 -1.475,-0.14 -2.252,0.57 h -0.007 c -0.001,0 -0.002,0.01 -0.003,0.01 h -0.005 c -0.773,0.71 -1.003,1.6 -0.534,1.99 z m 0.106,-0.1 c -0.444,-0.37 -0.222,-1.19 0.482,-1.84 0.001,0 0.001,-0.01 0.002,-0.01 h 0.003 c 0.003,0 0.005,0 0.008,-0.01 0.709,-0.64 1.65,-0.88 2.095,-0.51 0.446,0.37 0.217,1.2 -0.493,1.85 -0.71,0.65 -1.651,0.89 -2.097,0.52 z"
                     style="fill:#6c4a19"
                     id="path9288" />
                <path
                     inkscape:connector-curvature="0"
                     d="m 188.478,161.76 c 0.64,-0.78 1.57,-1.16 2.078,-0.85 0.508,0.31 0.401,1.2 -0.238,1.98 -0.639,0.78 -1.57,1.16 -2.078,0.85 -0.506,-0.31 -0.402,-1.19 0.232,-1.97"
                     style="fill:#b96408"
                     id="path3467" />
                <path
                     inkscape:connector-curvature="0"
                     d="m 188.182,163.79 c 0.521,0.31 1.484,-0.08 2.152,-0.89 0.669,-0.82 0.776,-1.74 0.255,-2.05 -0.52,-0.32 -1.481,0.07 -2.149,0.88 -0.002,0 -0.004,0 -0.006,0.01 h -0.003 -0.004 c -0.663,0.82 -0.765,1.73 -0.245,2.05 z m 0.09,-0.12 c -0.491,-0.3 -0.388,-1.15 0.216,-1.89 h 0.001 0.003 c 0.002,-0.01 0.004,-0.01 0.007,-0.01 0.609,-0.74 1.506,-1.12 1.999,-0.81 0.494,0.3 0.386,1.15 -0.224,1.9 -0.61,0.74 -1.508,1.12 -2.002,0.81 z"
                     style="fill:#6c4a19"
                     id="path18510" />
                <path
                     inkscape:connector-curvature="0"
                     d="m 262.53,161.45 c -0.52,-0.87 -1.39,-1.38 -1.94,-1.14 -0.54,0.23 -0.56,1.12 -0.04,1.99 0.52,0.86 1.39,1.37 1.94,1.14 0.54,-0.24 0.56,-1.12 0.05,-1.98"
                     style="fill:#b96408"
                     id="path3469" />
                <path
                     inkscape:connector-curvature="0"
                     d="m 262.51,163.49 c -0.56,0.24 -1.46,-0.28 -2.01,-1.19 -0.54,-0.9 -0.52,-1.82 0.04,-2.06 0.56,-0.24 1.46,0.28 2,1.18 h 0.01 v 0.01 h 0.01 c 0.54,0.91 0.51,1.82 -0.05,2.06 z m -0.08,-0.12 c 0.53,-0.23 0.55,-1.09 0.06,-1.91 l -0.01,-0.01 c -0.5,-0.82 -1.33,-1.32 -1.86,-1.09 -0.53,0.23 -0.55,1.09 -0.05,1.92 0.5,0.82 1.33,1.32 1.86,1.09 z"
                     style="fill:#6c4a19"
                     id="path18516" />
                <path
                     inkscape:connector-curvature="0"
                     d="m 255.81,147.73 c -0.51,-0.88 -1.36,-1.41 -1.91,-1.18 -0.55,0.22 -0.6,1.11 -0.09,1.98 0.5,0.88 1.35,1.41 1.9,1.19 0.55,-0.22 0.6,-1.11 0.1,-1.98"
                     style="fill:#b96408"
                     id="path3471" />
                <path
                     inkscape:connector-curvature="0"
                     d="m 255.74,149.77 c -0.57,0.23 -1.46,-0.31 -1.98,-1.23 -0.52,-0.92 -0.48,-1.84 0.09,-2.06 0.56,-0.23 1.45,0.31 1.97,1.22 0,0 0,0.01 0.01,0.01 v 0.01 c 0.52,0.91 0.47,1.83 -0.09,2.05 z m -0.08,-0.12 c 0.54,-0.22 0.58,-1.07 0.11,-1.91 h -0.01 v -0.01 c -0.48,-0.83 -1.31,-1.35 -1.84,-1.13 -0.54,0.22 -0.57,1.08 -0.09,1.91 0.47,0.84 1.3,1.35 1.83,1.14 z"
                     style="fill:#6c4a19"
                     id="path18518" />
                <path
                     inkscape:connector-curvature="0"
                     d="m 236.27,139.57 c -0.4,-0.92 -1.19,-1.55 -1.76,-1.39 -0.57,0.16 -0.72,1.04 -0.32,1.97 0.4,0.92 1.19,1.55 1.77,1.39 0.57,-0.16 0.71,-1.03 0.32,-1.96"
                     style="fill:#b96408"
                     id="path3473" />
                <path
                     inkscape:connector-curvature="0"
                     d="m 235.97,141.6 c -0.59,0.16 -1.41,-0.48 -1.82,-1.45 -0.42,-0.97 -0.27,-1.88 0.32,-2.04 0.58,-0.16 1.4,0.47 1.82,1.44 v 0.01 h 0.01 v 0.01 c 0.41,0.96 0.26,1.86 -0.33,2.03 z m -0.06,-0.13 c 0.56,-0.16 0.7,-1 0.32,-1.89 l -0.01,-0.01 c -0.38,-0.88 -1.14,-1.49 -1.7,-1.33 -0.55,0.15 -0.69,1.01 -0.3,1.89 0.38,0.88 1.14,1.49 1.69,1.34 z"
                     style="fill:#6c4a19"
                     id="path18520" />
                <path
                     inkscape:connector-curvature="0"
                     d="m 224.41,146.88 c -0.28,-0.97 -0.99,-1.69 -1.58,-1.6 -0.59,0.09 -0.83,0.94 -0.55,1.91 0.28,0.97 0.99,1.69 1.58,1.6 0.58,-0.09 0.83,-0.94 0.55,-1.9"
                     style="fill:#b96408"
                     id="path3475" />
                <path
                     inkscape:connector-curvature="0"
                     d="m 223.86,148.85 c -0.6,0.09 -1.33,-0.65 -1.63,-1.66 -0.3,-1.01 -0.04,-1.9 0.57,-1.99 0.6,-0.09 1.33,0.65 1.63,1.66 v 0.01 c 0,0 0.01,0 0.01,0.01 0.29,1 0.03,1.88 -0.58,1.97 z m -0.04,-0.14 c 0.57,-0.08 0.81,-0.9 0.55,-1.82 v -0.01 h -0.01 v -0.01 c -0.27,-0.92 -0.95,-1.61 -1.52,-1.53 -0.57,0.09 -0.81,0.92 -0.54,1.84 0.27,0.92 0.95,1.62 1.52,1.53 z"
                     style="fill:#6c4a19"
                     id="path18522" />
                <path
                     inkscape:connector-curvature="0"
                     d="m 274.78,138.54 c -0.5,-0.87 -1.35,-1.4 -1.9,-1.18 -0.56,0.22 -0.6,1.11 -0.1,1.99 0.51,0.87 1.36,1.4 1.91,1.18 0.55,-0.22 0.6,-1.11 0.1,-1.98"
                     style="fill:#b96408"
                     id="path3477" />
                <path
                     inkscape:connector-curvature="0"
                     d="m 274.71,140.58 c -0.56,0.23 -1.45,-0.31 -1.97,-1.23 -0.53,-0.91 -0.48,-1.83 0.09,-2.06 0.56,-0.23 1.44,0.31 1.97,1.22 v 0.01 h 0.01 v 0.01 c 0.52,0.91 0.47,1.83 -0.1,2.05 z m -0.07,-0.12 c 0.54,-0.21 0.58,-1.07 0.1,-1.9 v -0.01 -0.01 c -0.48,-0.83 -1.31,-1.34 -1.84,-1.13 -0.54,0.22 -0.57,1.08 -0.1,1.92 0.48,0.83 1.31,1.35 1.84,1.13 z"
                     style="fill:#6c4a19"
                     id="path18524" />
                <path
                     inkscape:connector-curvature="0"
                     d="m 243.48,153.92 c -0.49,-0.88 -1.34,-1.42 -1.89,-1.21 -0.56,0.21 -0.61,1.1 -0.13,1.99 0.49,0.88 1.34,1.42 1.89,1.21 0.56,-0.21 0.61,-1.1 0.13,-1.98"
                     style="fill:#b96408"
                     id="path3479" />
                <path
                     inkscape:connector-curvature="0"
                     d="m 243.38,155.97 c -0.58,0.21 -1.45,-0.34 -1.96,-1.27 -0.51,-0.92 -0.45,-1.84 0.12,-2.06 0.57,-0.22 1.44,0.34 1.95,1.26 h 0.01 v 0.01 c 0.51,0.92 0.44,1.84 -0.12,2.06 z m -0.07,-0.13 c 0.53,-0.21 0.59,-1.06 0.13,-1.9 h -0.01 v -0.01 -0.01 c -0.47,-0.84 -1.28,-1.36 -1.82,-1.16 -0.54,0.21 -0.59,1.07 -0.13,1.92 0.47,0.84 1.29,1.37 1.83,1.16 z"
                     style="fill:#6c4a19"
                     id="path18526" />
                <path
                     inkscape:connector-curvature="0"
                     d="m 297.94,146.68 c -0.49,-0.88 -1.34,-1.42 -1.9,-1.21 -0.55,0.22 -0.6,1.11 -0.11,1.99 0.49,0.88 1.34,1.42 1.89,1.21 0.56,-0.22 0.61,-1.1 0.12,-1.98"
                     style="fill:#b96408"
                     id="path3481" />
                <path
                     inkscape:connector-curvature="0"
                     d="m 297.84,148.72 c -0.57,0.22 -1.44,-0.33 -1.96,-1.25 -0.51,-0.93 -0.45,-1.85 0.11,-2.07 0.57,-0.22 1.45,0.34 1.96,1.25 l 0.01,0.01 v 0.01 c 0.51,0.92 0.45,1.83 -0.12,2.05 z m -0.07,-0.12 c 0.54,-0.21 0.59,-1.07 0.13,-1.91 h -0.01 v -0.01 c -0.47,-0.84 -1.29,-1.36 -1.83,-1.15 -0.54,0.21 -0.58,1.07 -0.11,1.91 0.47,0.84 1.28,1.37 1.82,1.16 z"
                     style="fill:#6c4a19"
                     id="path18528" />
                <path
                     inkscape:connector-curvature="0"
                     d="m 280.93,150.98 c -0.55,-0.84 -1.44,-1.31 -1.98,-1.05 -0.54,0.25 -0.52,1.15 0.04,1.99 0.56,0.84 1.45,1.31 1.98,1.05 0.54,-0.25 0.52,-1.14 -0.03,-1.98"
                     style="fill:#b96408"
                     id="path3483" />
                <path
                     inkscape:connector-curvature="0"
                     d="m 281,153.02 c -0.55,0.27 -1.47,-0.22 -2.06,-1.1 -0.58,-0.87 -0.59,-1.8 -0.04,-2.06 0.55,-0.27 1.46,0.22 2.05,1.09 v 0.01 c 0.01,0 0.01,0.01 0.01,0.01 0.58,0.88 0.59,1.79 0.04,2.05 z m -0.08,-0.11 c 0.52,-0.25 0.5,-1.11 -0.03,-1.91 v -0.01 l -0.01,-0.01 c -0.53,-0.79 -1.38,-1.25 -1.9,-1 -0.53,0.25 -0.5,1.11 0.03,1.91 0.53,0.81 1.39,1.27 1.91,1.02 z"
                     style="fill:#6c4a19"
                     id="path18532" />
                <path
                     inkscape:connector-curvature="0"
                     d="m 235.37,164.49 c -0.41,-0.92 -1.22,-1.53 -1.79,-1.36 -0.57,0.17 -0.69,1.05 -0.27,1.97 0.41,0.92 1.21,1.53 1.79,1.36 0.56,-0.17 0.69,-1.05 0.28,-1.97"
                     style="fill:#b96408"
                     id="path3485" />
                <path
                     inkscape:connector-curvature="0"
                     d="m 235.11,166.51 c -0.59,0.18 -1.42,-0.45 -1.85,-1.41 -0.44,-0.96 -0.31,-1.87 0.28,-2.05 0.58,-0.17 1.41,0.45 1.85,1.41 v 0.01 h 0.01 v 0.01 c 0.43,0.96 0.29,1.86 -0.29,2.03 z m -0.06,-0.13 c 0.55,-0.16 0.67,-1.01 0.28,-1.88 v -0.01 c 0,0 -0.01,0 -0.01,-0.01 -0.4,-0.87 -1.17,-1.46 -1.72,-1.3 -0.56,0.17 -0.67,1.03 -0.27,1.9 0.39,0.88 1.17,1.47 1.72,1.3 z"
                     style="fill:#6c4a19"
                     id="path18534" />
                <path
                     inkscape:connector-curvature="0"
                     d="m 214.182,160.54 c 0.15,-1 -0.192,-1.95 -0.762,-2.12 -0.571,-0.16 -1.156,0.51 -1.306,1.51 -0.149,1 0.192,1.94 0.763,2.11 0.569,0.17 1.151,-0.5 1.304,-1.49"
                     style="fill:#b96408"
                     id="path3487" />
                <path
                     inkscape:connector-curvature="0"
                     d="m 212.852,162.1 c -0.586,-0.17 -0.942,-1.15 -0.785,-2.19 0.156,-1.04 0.763,-1.74 1.349,-1.56 0.585,0.17 0.941,1.14 0.787,2.18 v 0.01 h -0.001 c 0,0.01 0,0.01 -0.001,0.01 -0.159,1.04 -0.765,1.72 -1.349,1.55 z m 0.021,-0.14 c 0.554,0.16 1.114,-0.48 1.26,-1.43 h 10e-4 v -0.01 c 0.001,0 0.001,0 0.002,-0.01 0.141,-0.95 -0.187,-1.86 -0.741,-2.02 -0.555,-0.17 -1.118,0.49 -1.261,1.44 -0.143,0.95 0.184,1.87 0.739,2.03 z"
                     style="fill:#6c4a19"
                     id="path18536" />
            </g>
            <g
                 transform="matrix(1.1062538,0,0,1.1062538,195.11498,-8.9737427)"
                 id="g3967">
                <path
                     inkscape:connector-curvature="0"
                     d="m 214.969,84.459 c -5.924,-0.034 -11.887,0.202 -14.629,0.719 -0.619,0.117 -9.965,1.687 -11.898,2.031 -5.198,0.927 -8.655,1.806 -14.661,3.813 -9.083,3.034 -14.327,5.609 -20.499,10.028 -2.612,1.87 -9.253,8.21 -11.239,10.72 -0.759,0.96 -4.196,5.44 -4.615,6 -0.419,0.56 -1.454,1.95 -2.292,3.06 -2.27,3.04 -3.313,6.54 -3.746,8.4 -0.323,2.62 -0.582,3.53 -0.712,6.73 0.015,2.14 1.077,3.49 3.297,4.22 1.052,0.34 2.648,-0.07 4.332,-1.16 0.644,-0.41 2.308,-1.41 3.704,-2.22 2.428,-1.4 3.793,-2.43 5.871,-4.34 0.521,-0.48 1.521,-1.25 2.197,-1.72 0.954,-0.66 1.976,-1.6 3.265,-2.56 4.79,-3.58 11.545,-5.65 13.813,-4.25 1.238,0.76 1.259,1.01 0.503,3.34 -1.314,4.06 -0.954,6.87 0.726,8.38 1.585,0.99 4.187,0.38 5.333,0 1.681,-0.56 2.882,-1.15 9.983,-5.03 1.395,-0.77 3.495,-1.72 4.677,-2.1 1.856,-0.6 6.04,-1.55 9.795,0.1 4.116,1.71 4.618,2.17 7.158,6.81 1.092,1.99 3.107,4.08 5.18,5.9 1.917,1.7 4.565,1.9 7.66,0.6 2.008,-0.84 3.188,-1.66 4.708,-3.31 3.85,-5.22 11.67,-7.3 13.75,-6.64 2.87,0.42 5.03,1.32 10.49,5.04 0.59,0.34 4.12,3.12 5.02,3.69 0.9,0.57 6.25,4.01 7,4.41 2.18,1.14 5.35,0.34 6.62,-0.85 1.38,-2.02 1.49,-1.63 1.73,-5.53 0.33,-5.28 0.39,-5.51 0.97,-6.12 2.22,-1.87 5.06,-0.2 5.65,0.02 2.51,1.07 10.88,5.87 11.78,6.51 0.9,0.64 5.12,2.53 5.96,2.75 1.64,0.41 3.14,0.41 3.93,0 1.47,-0.95 2.05,-2.18 2.16,-2.57 0.18,-0.48 0.58,-1.96 0.72,-3.18 0.46,-3.93 0,-8.3 -1.09,-10.44 -0.18,-0.35 -3.05,-6.12 -4.53,-7.84 -0.6,-0.72 -4.73,-5.62 -6.56,-6.97 -0.96,-0.71 -2.93,-2.44 -4.36,-3.82 -1.43,-1.37 -3.07,-2.85 -3.67,-3.28 -0.6,-0.42 -2.28,-1.62 -3.74,-2.65 -3.61,-2.564 -4.36,-3.003 -5.71,-3.597 -0.65,-0.283 -2.44,-1.129 -3.99,-1.875 -5.63,-2.714 -9.25,-4.291 -11.33,-4.875 -0.58,-0.163 -1.59,-0.477 -2.23,-0.719 -1.72,-0.646 -7.08,-2.013 -8.57,-2.187 -0.71,-0.083 -12.73,-2.382 -13.56,-2.563 -2.54,-0.547 -8.43,-0.84 -14.351,-0.875 z"
                     style="fill:#ededff"
                     sodipodi:nodetypes="ccccccccccccccccccccccccccccccccccccccccccccccccccccc"
                     id="path1499" />
                <path
                     inkscape:connector-curvature="0"
                     d="m 162.343,102.16 c -10.418,1.45 -16.013,11.39 -22.226,18.7 -1.915,3.1 -6.876,12.14 -1.248,12.62 8.941,-5.26 16.346,-14.93 27.556,-15.04 8.823,-2.2 3.523,14.03 10.948,10.64 7.294,-5.45 18.008,-9.25 26.306,-3.71 4.818,3.26 6.851,10.45 13.103,11.41 5.858,-0.77 8.098,-8.05 14.168,-8.88 7.34,-2.33 15.61,0.27 20.76,5.88 3.35,2.9 10.97,8.1 13.35,1.65 -0.69,-5.09 3.73,-10.29 9.06,-8.45 6.24,1.34 10.92,6.07 16.61,8.52 7.37,2.41 6.11,-8.42 0.33,-9.41 -7.52,-5.21 -15.19,-10.72 -24.05,-13.35 -10.56,-1.96 -18.84,6.77 -28.74,8.5 -10.49,-0.52 -19.517,-10.21 -30.352,-6.71 -8.824,3.59 -20.606,5.27 -28.036,-2.07 -4.219,-5.28 -10.083,-11.41 -17.539,-10.3 z"
                     style="fill:#e1e1ff"
                     id="path20054" />
            </g>
            <g
                 id="g4559">
                <path
                     inkscape:connector-curvature="0"
                     d="m 459.94595,90.58936 c 0,9.47411 -10.64766,17.16978 -23.76089,17.16978 -13.11322,0 -23.76089,-7.69567 -23.76089,-17.16978 0,-9.474091 10.64767,-17.169782 23.76089,-17.169782 13.07346,0 23.6913,7.630998 23.76089,17.072783"
                     style="opacity:0.1;fill:#000000;fill-opacity:1"
                     id="path23915" />
                <path
                     inkscape:connector-curvature="0"
                     d="m 463.1199,77.272658 c 0,14.496217 -12.16398,26.261262 -27.15175,26.261262 -14.98776,0 -27.15175,-11.765045 -27.15175,-26.261262 0,-14.496217 12.16399,-26.261263 27.15175,-26.261263 14.98777,0 27.15175,11.765046 27.15175,26.261263 z"
                     style="fill:#c31b28;fill-opacity:1"
                     id="path2536" />
                <path
                     inkscape:connector-curvature="0"
                     d="m 435.94851,53.025496 c -4.43717,-0.0911 -9.21962,0.777899 -12.56341,3.757508 -2.88955,3.404766 -0.2412,9.404865 4.43227,9.567219 4.7347,0.399461 9.28083,-1.345555 13.97144,-1.63055 4.08822,-0.39479 8.38948,0.539623 11.58512,3.076554 3.967,3.001801 6.04846,7.821035 6.09743,12.585372 0.0735,1.781225 -0.0489,3.567121 -0.30609,5.333162 1.44477,-1.803417 1.40804,-4.19785 1.81209,-6.334151 0.42853,-5.058678 -0.85707,-10.276205 -3.80784,-14.51844 -2.76711,-2.823094 -7.30957,-3.922197 -11.12965,-2.583651 -4.87671,1.106111 -10.133,1.551125 -14.9938,0.149506 -1.53293,-0.532615 -3.54703,-1.504405 -3.30828,-3.356878 0.18121,-1.78356 2.05574,-2.993625 3.84946,-2.893176 6.6888,-1.169184 14.00817,-0.663433 19.88888,2.830103 2.04473,0.162354 -1.48149,-1.851305 -2.17939,-2.352384 -3.94865,-2.428305 -8.65884,-3.680419 -13.34823,-3.630194 z"
                     style="opacity:0.43902001;fill:#ebb4b5"
                     id="path6236" />
                <path
                     inkscape:connector-curvature="0"
                     d="m 456.92379,72.386808 c 3.2567,5.320914 2.112,10.938011 -2.55885,12.537042 -4.66585,1.597316 -11.09876,-1.425644 -14.35546,-6.746558 -3.25913,-5.324871 -2.11443,-10.941969 2.55142,-12.539284 4.67085,-1.599032 11.10376,1.423929 14.36289,6.7488 z"
                     style="fill:url(#radialGradient4642)"
                     id="path6819" />
                <path
                     inkscape:connector-curvature="0"
                     d="m 415.11561,65.489395 c -2.75976,3.953734 -4.24371,8.491477 -3.9119,13.094628 0.23019,10.811156 10.25299,20.781341 22.97678,23.287907 -12.49116,-5.465151 -20.91125,-15.574329 -20.91125,-27.170392 0,-3.205036 0.65382,-6.297943 1.84637,-9.212143 z"
                     style="opacity:0.65157004;fill:#5b050b"
                     id="path6829" />
                <path
                     id="path12957"
                     style="opacity:0.30314002;fill:#000000;fill-rule:evenodd"
                     d="m 443.3208,59.305887 c 0,1.166408 -2.39806,2.113058 -5.34996,2.113058 -2.95761,0 -5.35567,-0.94665 -5.35567,-2.113058 0,-1.166408 2.39806,-2.113058 5.35567,-2.113058 2.9519,0 5.34996,0.94665 5.34996,2.113058 z"
                     inkscape:connector-curvature="0" />
            </g>
        </g>
    </g>
    <metadata
         id="metadata82">
        <rdf:RDF>
            <cc:Work>
                <dc:format>image/svg+xml</dc:format>
                <dc:type
                     rdf:resource="http://purl.org/dc/dcmitype/StillImage" />
                <cc:license
                     rdf:resource="http://creativecommons.org/licenses/publicdomain/" />
                <dc:publisher>
                    <cc:Agent
                         rdf:about="http://openclipart.org/">
                        <dc:title>Openclipart</dc:title>
                    </cc:Agent>
                </dc:publisher>
                <dc:title></dc:title>
                <dc:date>2008-05-26T12:02:26</dc:date>
                <dc:description />
                <dc:source>https://openclipart.org/detail/17034/muffin-by-jean_victor_balin</dc:source>
                <dc:creator>
                    <cc:Agent>
                        <dc:title>jean_victor_balin</dc:title>
                    </cc:Agent>
                </dc:creator>
                <dc:subject>
                    <rdf:Bag>
                        <rdf:li>cake</rdf:li>
                        <rdf:li>dessert</rdf:li>
                        <rdf:li>food</rdf:li>
                    </rdf:Bag>
                </dc:subject>
            </cc:Work>
            <cc:License
                 rdf:about="http://creativecommons.org/licenses/publicdomain/">
                <cc:permits
                     rdf:resource="http://creativecommons.org/ns#Reproduction" />
                <cc:permits
                     rdf:resource="http://creativecommons.org/ns#Distribution" />
                <cc:permits
                     rdf:resource="http://creativecommons.org/ns#DerivativeWorks" />
            </cc:License>
        </rdf:RDF>
    </metadata>
</svg>
