<svg version="1.1" id="Layer_1" xmlns="http://www.w3.org/2000/svg" xmlns:xlink="http://www.w3.org/1999/xlink" x="0px" y="0px"
	 width="100%" viewBox="0 0 1257 1001" enable-background="new 0 0 1257 1001" xml:space="preserve">
<path fill="#FFFFFF" opacity="1.000000" stroke="none" 
	d="
M1.000000,535.000000 
	C1.000000,357.031860 1.000000,179.063721 1.000000,1.047791 
	C419.893158,1.047791 838.786316,1.047791 1258.000000,1.047791 
	C1258.000000,178.694580 1258.000000,356.389343 1257.531372,534.542053 
	C1243.450562,535.000000 1229.838501,535.000000 1216.301025,535.000000 
	C1216.301025,537.297852 1216.301025,539.039062 1216.301025,540.331909 
	C1220.082153,541.065125 1223.491211,541.726257 1227.688354,542.540100 
	C1215.977661,562.913391 1204.993652,582.022644 1193.738525,601.603394 
	C1187.862793,591.537903 1182.413086,582.231445 1176.992310,572.908142 
	C1171.976074,564.280640 1166.952026,555.657349 1162.009521,546.987610 
	C1159.752563,543.028870 1160.837769,541.114136 1165.253906,541.010010 
	C1167.709839,540.952026 1170.168335,540.999573 1172.762695,540.999573 
	C1172.762695,538.822754 1172.762695,537.092224 1172.762695,535.255798 
	C1153.447632,535.255798 1134.368530,535.255798 1115.280029,535.255798 
	C1115.280029,537.248352 1115.280029,538.981262 1115.280029,541.077698 
	C1122.912964,540.735168 1128.975342,540.507812 1133.515381,549.439148 
	C1143.925781,569.919250 1156.427124,589.334229 1167.992920,609.232056 
	C1169.581787,611.965637 1171.692993,614.943604 1171.817627,617.882324 
	C1172.275635,628.694580 1172.109375,639.539795 1171.930908,650.368530 
	C1171.878296,653.557434 1170.748535,656.510498 1166.812622,657.036377 
	C1163.299683,657.505737 1159.793945,658.028442 1156.286621,658.533936 
	C1156.288208,660.270874 1156.288208,662.001465 1156.288208,663.999573 
	C1161.213989,663.999573 1165.856445,663.999634 1170.498901,663.999573 
	C1184.496704,663.999451 1198.494629,663.995605 1212.492432,664.003357 
	C1214.700317,664.004578 1217.031616,664.262451 1216.994507,660.951355 
	C1216.957153,657.607117 1214.547119,658.045166 1212.390625,657.994934 
	C1203.942017,657.798340 1201.000122,654.760010 1200.999512,646.267273 
	C1200.998657,635.268982 1200.991699,624.270630 1201.009399,613.272339 
	C1201.011475,611.950073 1200.733398,610.405273 1201.298950,609.344116 
	C1203.871094,604.518311 1206.679810,599.817627 1209.437988,595.092102 
	C1218.840210,578.983337 1228.311035,562.914185 1237.627930,546.756226 
	C1239.787964,543.010010 1242.491699,540.775146 1247.003052,540.967712 
	C1250.662598,541.123962 1254.333862,540.999817 1258.000000,541.000000 
	C1258.000000,694.635559 1258.000000,848.271118 1258.000000,1001.953369 
	C839.115906,1001.953369 420.231842,1001.953369 1.000000,1001.953369 
	C1.000000,889.638855 1.000000,777.277405 1.468657,664.457886 
	C15.879882,663.999817 29.822449,663.999817 43.708412,663.999817 
	C43.708412,661.715271 43.708412,659.979675 43.708412,658.000427 
	C41.775131,658.000427 40.129902,658.033447 38.486351,657.994812 
	C30.483686,657.806946 28.000326,655.282532 27.999937,647.364136 
	C27.999119,630.704712 27.999849,614.045349 27.999903,597.385925 
	C27.999939,585.475098 27.999910,573.564270 27.999910,560.269958 
	C43.591366,590.595581 58.546383,619.683289 73.618317,648.998413 
	C77.432327,648.998413 81.437157,649.184937 85.406563,648.891846 
	C86.701866,648.796265 88.454529,647.752136 89.068413,646.632263 
	C99.850281,626.964294 110.446861,607.194885 121.176094,587.497803 
	C125.759453,579.083557 130.554337,570.784546 135.997025,561.110962 
	C135.997025,592.074524 136.102341,621.487305 135.772690,650.895325 
	C135.749405,652.974121 132.904205,655.819763 130.688446,656.873840 
	C127.909370,658.195984 124.424828,658.035217 120.983742,658.553833 
	C121.060730,660.305481 121.136749,662.035095 121.209816,663.697632 
	C141.355362,663.697632 161.098633,663.697632 181.042816,663.697632 
	C180.950806,661.630432 180.873077,659.884277 180.789261,658.000977 
	C179.517532,658.000977 178.694641,658.008484 177.871933,657.999817 
	C168.111526,657.896973 166.000412,655.806519 166.000397,646.248535 
	C166.000351,615.428650 166.225906,584.606201 165.875092,553.790283 
	C165.756165,543.342773 168.924652,539.885193 178.717743,540.979065 
	C179.334839,541.047974 179.979095,540.873840 180.780731,540.796326 
	C180.780731,538.855347 180.780731,537.123657 180.780731,535.000000 
	C167.274597,535.000000 153.978088,535.195862 140.694290,534.871582 
	C137.068161,534.783020 135.429428,536.346863 133.962372,539.024780 
	C130.637222,545.094543 127.264969,551.138489 123.932320,557.204163 
	C112.469177,578.067627 101.014839,598.935913 89.389786,620.107178 
	C87.485054,616.811279 85.641869,613.806946 83.974838,610.707947 
	C70.969315,586.529724 57.944241,562.361572 45.099335,538.098145 
	C43.837009,535.713623 42.645454,534.897034 39.982151,534.929138 
	C26.989706,535.085876 13.994335,535.000061 1.000000,535.000000 
M657.998413,732.037292 
	C658.000122,742.526245 657.963562,753.015564 658.047791,763.503845 
	C658.059387,764.952759 658.668518,766.396973 659.896912,767.982178 
	C661.828003,767.982178 663.759094,767.982178 665.740540,767.982178 
	C665.740540,752.751465 665.740540,738.023804 665.740540,721.797668 
	C659.668823,723.559753 654.238647,725.135620 649.551147,726.495972 
	C649.545044,732.954224 652.673767,732.644958 656.466553,731.038025 
	C656.875183,730.864929 657.448608,731.081055 657.998413,732.037292 
M742.712708,312.701233 
	C742.580688,312.587067 742.448608,312.472931 742.808655,311.858917 
	C745.207031,307.872467 747.991760,304.064117 749.927185,299.864319 
	C754.664246,289.585144 755.189636,278.751343 752.987976,267.760437 
	C750.286499,254.273911 740.471069,240.234848 726.741882,234.243332 
	C714.042175,259.564026 707.572693,286.020020 711.206665,314.422607 
	C715.016479,291.079407 723.625000,267.737549 731.569092,258.811401 
	C743.007141,278.496246 743.295959,298.115631 731.994934,318.037903 
	C748.093811,317.800537 763.469910,318.020538 775.492798,332.879211 
	C771.119324,334.995300 768.153748,337.084625 764.871521,337.900665 
	C753.106689,340.825714 741.871033,338.140350 731.083496,333.447296 
	C728.158691,332.174866 726.309387,331.749817 725.045898,335.088959 
	C733.638611,345.004150 782.081055,364.755341 802.416077,367.214355 
	C801.936035,362.039612 802.009094,356.849213 800.886780,351.931671 
	C798.271667,340.473419 792.203064,331.111542 782.734070,323.884644 
	C770.917236,314.865906 757.555359,312.044617 742.712708,312.701233 
M973.130798,578.018188 
	C971.188843,578.018188 969.246887,578.018188 966.997437,578.018188 
	C966.997437,580.306763 967.319336,582.183044 966.931213,583.898743 
	C966.092102,587.608459 965.658813,592.567627 960.930481,592.787842 
	C949.701172,593.310791 938.430969,592.956177 927.357605,592.956177 
	C927.357605,575.264465 927.357605,558.200684 927.357605,541.000366 
	C943.536987,541.000366 959.359558,540.929382 975.180969,541.038879 
	C980.729004,541.077271 982.967285,543.652954 982.980957,549.276367 
	C982.987671,552.068237 982.982117,554.860107 982.982117,557.766357 
	C985.819641,557.766357 988.220703,557.766357 990.737244,557.766357 
	C990.737244,550.131165 990.737244,542.731506 990.737244,535.265991 
	C954.735657,535.265991 918.997314,535.265991 883.290344,535.265991 
	C883.290344,537.273193 883.290344,539.009766 883.290344,541.000000 
	C884.556030,541.000000 885.533447,540.993164 886.510681,541.001099 
	C896.467041,541.081421 899.000122,543.642395 899.000183,553.624268 
	C899.000244,582.951233 898.846619,612.279358 899.075684,641.604492 
	C899.167480,653.360229 898.218262,658.773865 883.789429,658.104858 
	C883.669434,658.099243 883.539734,658.303101 883.217285,658.576538 
	C883.217285,660.143005 883.217285,661.875610 883.217285,663.754395 
	C919.166809,663.754395 954.899597,663.754395 990.734863,663.754395 
	C990.734863,655.437134 990.734863,647.367981 990.734863,639.247314 
	C988.059509,639.247314 985.654602,639.247314 982.981445,639.247314 
	C982.981445,641.962952 982.710815,644.470886 983.035706,646.899109 
	C983.801636,652.624939 981.235168,655.555603 975.195007,655.785828 
	C959.274658,656.392517 943.315857,655.991089 927.263489,655.991089 
	C927.263489,636.788269 927.263489,618.059692 927.263489,599.002747 
	C937.655762,599.002747 947.800415,598.704712 957.912109,599.151978 
	C961.862854,599.326660 966.001770,600.684021 966.072144,606.307495 
	C966.103333,608.804688 967.056152,611.290344 967.602051,613.834473 
	C969.733398,613.834473 971.876831,613.834473 974.847290,613.575928 
	C974.897278,602.387329 974.962708,591.198792 974.955383,580.010193 
	C974.955017,579.393311 974.349365,578.776794 973.130798,578.018188 
M446.018158,551.969849 
	C446.063019,565.958191 446.107880,579.946533 445.988281,594.867676 
	C445.988281,605.754517 445.988281,616.641418 445.988281,628.963745 
	C441.917847,624.287598 438.869446,620.693298 435.721466,617.188354 
	C429.244751,609.977356 422.749969,602.781982 416.198853,595.638611 
	C404.736786,583.140442 393.200317,570.710327 381.747192,558.203979 
	C375.537720,551.423462 369.545990,544.439453 363.199799,537.791809 
	C361.803711,536.329346 359.336639,535.163025 357.337006,535.122192 
	C345.344025,534.877136 333.343475,534.990662 321.345551,535.017822 
	C320.253693,535.020325 319.162323,535.261780 318.200531,535.376770 
	C318.200531,537.339722 318.200531,538.959839 318.200531,541.001099 
	C320.850281,541.001099 323.316925,540.872498 325.765198,541.029724 
	C330.005676,541.302002 332.987732,544.481567 332.989777,548.668518 
	C333.006195,582.162903 333.009186,615.657288 332.989136,649.151672 
	C332.985718,654.868958 330.506897,657.535095 324.802612,657.972412 
	C322.687653,658.134521 320.549835,657.998657 318.215088,657.998657 
	C318.215088,660.129211 318.215088,661.862244 318.215088,663.765442 
	C332.167999,663.765442 345.915405,663.765442 359.746094,663.765442 
	C359.746094,661.791016 359.746094,660.053772 359.746094,658.001038 
	C358.527283,658.001038 357.556763,658.036926 356.589508,657.995483 
	C345.771973,657.532288 344.858673,654.688904 344.924377,646.069275 
	C345.130096,619.075317 344.999939,592.078918 344.999939,565.083435 
	C344.999939,563.529053 344.999939,561.974731 344.999939,559.175354 
	C351.636932,566.690735 357.283020,573.248596 363.107391,579.644043 
	C374.305969,591.940674 385.628143,604.124512 396.857300,616.393372 
	C410.840424,631.671143 424.771149,646.996948 438.770172,662.260071 
	C439.486237,663.040771 440.619202,663.891052 441.581268,663.919312 
	C447.001251,664.078613 452.428345,663.996155 457.999664,663.996155 
	C457.999664,661.493652 457.999664,659.671570 457.999664,657.849487 
	C457.999664,622.355469 458.051941,586.861206 457.947235,551.367554 
	C457.930115,545.565308 461.487213,539.697998 467.761108,540.952881 
	C469.321930,541.265137 470.998352,540.999573 472.763977,540.999573 
	C472.763977,538.828674 472.763977,537.097473 472.763977,535.253906 
	C458.782196,535.253906 445.035400,535.253906 431.276428,535.253906 
	C431.276428,537.254150 431.276428,538.987244 431.276428,540.689941 
	C445.570648,541.880066 445.570648,541.880066 446.018158,551.969849 
M681.147644,626.999390 
	C683.554077,626.572876 685.027100,627.417419 686.010925,629.801819 
	C688.647583,636.191650 691.389648,642.545532 694.333008,648.799194 
	C696.997742,654.460938 695.124939,657.825134 688.843811,657.985840 
	C685.580383,658.069397 682.312988,658.000549 678.870361,658.000549 
	C678.996765,660.392517 679.088989,662.136658 679.171631,663.700195 
	C719.012085,663.700195 758.422180,663.700195 798.040405,663.700195 
	C797.949463,661.641174 797.872253,659.893127 797.788696,658.001343 
	C796.523132,658.001343 795.700867,658.009033 794.878784,658.000183 
	C785.031494,657.894592 782.999451,655.880920 782.999451,646.232788 
	C782.999451,615.744751 782.999573,585.256714 782.999390,554.768677 
	C782.999329,542.287537 784.058960,541.188416 796.249939,540.978333 
	C796.714844,540.970398 797.176819,540.787109 797.765015,540.658081 
	C797.765015,538.829956 797.765015,537.098938 797.765015,535.249329 
	C778.122375,535.249329 758.713257,535.249329 739.270874,535.249329 
	C739.270874,537.236938 739.270874,538.971924 739.270874,540.999695 
	C741.009766,540.999695 742.482544,540.995544 743.955261,541.000366 
	C751.526733,541.025330 753.999451,543.450317 753.999329,550.849976 
	C753.998718,583.503845 754.002930,616.157715 753.991943,648.811584 
	C753.990051,654.469910 751.904663,657.039673 746.666382,657.977234 
	C733.175537,660.391968 728.164917,657.542419 722.617615,645.223511 
	C711.857239,621.327820 700.853638,597.541687 689.970825,573.701050 
	C684.888916,562.568115 679.799561,551.437927 674.828857,540.255310 
	C673.243958,536.689880 671.411316,534.270081 666.850342,534.900513 
	C663.253784,535.397522 659.523621,534.847961 655.874329,535.089233 
	C654.706299,535.166382 653.040649,536.009216 652.570068,536.973755 
	C649.896118,542.454285 647.473999,548.059937 645.042236,553.656067 
	C637.169006,571.774719 629.328979,589.907837 621.475647,608.035156 
	C615.914795,620.870789 610.528564,633.786560 604.692810,646.496033 
	C602.761475,650.702148 601.704407,656.090271 596.041077,657.397095 
	C593.538269,657.974609 590.916443,658.036133 588.247253,658.343567 
	C588.247253,660.190247 588.247253,661.922424 588.247253,663.743652 
	C602.572449,663.743652 616.651245,663.743652 630.719849,663.743652 
	C630.719849,661.746643 630.719849,660.009644 630.719849,658.506165 
	C627.043030,657.974182 623.672546,657.498962 620.306152,656.996582 
	C614.678406,656.157043 613.435364,653.772766 615.886047,648.458618 
	C618.581055,642.614685 621.811157,636.953186 623.827087,630.886169 
	C624.917419,627.604797 626.235046,626.934021 629.242920,626.951538 
	C646.235657,627.050537 663.229309,626.999390 681.147644,626.999390 
M1100.302246,600.973389 
	C1107.066650,595.955261 1111.677368,589.704163 1114.364258,581.435486 
	C1121.644653,559.029602 1104.681030,534.739746 1080.494263,534.951660 
	C1055.501465,535.170654 1030.505493,535.000366 1005.510925,535.000305 
	C1003.735229,535.000305 1001.959473,535.000305 999.946289,535.000305 
	C1000.054260,537.340393 1000.134583,539.081238 1000.223083,540.999817 
	C1002.796936,540.999817 1004.950195,540.942810 1007.099426,541.011169 
	C1012.299988,541.176453 1015.950012,544.638062 1015.962097,549.878723 
	C1016.037781,582.704834 1016.054504,615.531250 1015.950623,648.357117 
	C1015.931580,654.378784 1012.176758,657.743347 1006.027100,657.988464 
	C1004.093323,658.065552 1002.153809,658.000488 999.947388,658.000488 
	C1000.058472,660.329285 1000.140930,662.059326 1000.218506,663.685913 
	C1020.719604,663.685913 1040.799927,663.685913 1061.054565,663.685913 
	C1060.955322,661.613953 1060.871582,659.866516 1060.782104,658.000305 
	C1058.980347,658.000305 1057.655396,658.010254 1056.330688,657.998779 
	C1047.304932,657.920471 1044.999878,655.620239 1044.999878,646.699219 
	C1044.999756,613.373108 1044.999878,580.046997 1044.999878,546.720886 
	C1044.999878,544.938782 1044.999878,543.156677 1044.999878,540.999451 
	C1050.092896,540.999451 1054.722778,541.079956 1059.348755,540.982727 
	C1068.954102,540.780823 1076.775391,544.258240 1083.101807,551.582153 
	C1090.274170,559.885315 1091.904663,569.166626 1088.201294,579.224426 
	C1084.088867,590.393188 1075.795288,596.651917 1063.928223,597.983337 
	C1058.647583,598.575684 1053.346191,598.984314 1047.639282,599.514893 
	C1048.281738,601.150391 1048.588501,602.628784 1049.363159,603.796936 
	C1058.180298,617.093567 1066.893555,630.464539 1075.987671,643.570618 
	C1085.130127,656.746216 1098.350342,662.843933 1114.032593,663.975098 
	C1127.425415,664.941223 1139.734619,661.498718 1151.008179,654.246765 
	C1149.796753,650.782227 1149.784546,650.744995 1146.070557,651.959351 
	C1130.093872,657.183105 1117.020142,651.007263 1108.535278,639.758179 
	C1100.510254,629.118958 1093.718628,617.549438 1086.880005,607.143005 
	C1091.086548,605.126282 1095.321533,603.095886 1100.302246,600.973389 
M491.000458,576.500000 
	C490.659576,597.086731 490.307068,617.673218 489.987549,638.260254 
	C489.922913,642.424622 489.835419,646.597961 490.031372,650.754272 
	C490.192566,654.173279 488.363098,656.137756 485.518188,656.894470 
	C482.127777,657.796326 478.563019,658.042542 475.195557,658.554321 
	C475.195557,660.336487 475.195557,661.956116 475.195557,663.999634 
	C477.177612,663.999634 478.971405,663.999634 480.765198,663.999634 
	C507.757690,663.999634 534.750305,664.033630 561.742554,663.955139 
	C564.976868,663.945740 568.292053,663.674316 571.429199,662.931091 
	C588.607849,658.861633 598.598083,645.148315 598.892578,628.207703 
	C599.036011,619.962158 596.114319,612.313477 590.981873,605.793640 
	C585.780334,599.185913 578.688782,595.396423 570.241394,593.495239 
	C586.280518,587.997498 592.226257,578.125549 592.774902,565.218201 
	C593.460999,549.073853 581.305359,535.256775 564.375916,535.080627 
	C536.053589,534.785828 507.725861,534.996765 479.400391,535.010010 
	C477.963654,535.010681 476.526978,535.154968 474.935425,535.240723 
	C475.043274,537.423950 475.129272,539.165466 475.219849,540.999329 
	C476.556305,540.999329 477.390289,541.068237 478.209900,540.988892 
	C487.773499,540.063110 491.313965,544.360718 491.040253,554.007141 
	C490.837128,561.166016 491.000397,568.335327 491.000458,576.500000 
M249.579147,663.999573 
	C256.077911,663.334106 262.664642,663.131592 269.058990,661.916565 
	C288.536835,658.215698 304.517548,648.517029 315.897308,632.176086 
	C325.570862,618.285217 329.193604,602.615112 325.916901,585.936218 
	C322.880646,570.480957 314.084900,558.034607 301.899750,548.564331 
	C282.138458,533.205872 259.050201,528.882690 234.936966,533.254456 
	C217.951355,536.334045 203.029114,544.344910 191.286743,558.011353 
	C172.707870,579.634460 170.654770,608.901733 186.545425,631.760193 
	C201.285645,652.963806 222.957321,662.814209 249.579147,663.999573 
M641.962524,422.047852 
	C639.470764,431.210602 634.281616,438.449310 627.010071,444.567230 
	C616.725342,453.220337 604.869507,455.866486 591.904297,454.893799 
	C590.814087,454.812012 589.465698,453.500610 588.857483,452.413452 
	C584.398682,444.444031 584.747864,436.115570 587.045166,427.571289 
	C587.441162,426.098450 586.893982,423.258484 585.948608,422.810760 
	C584.667908,422.204224 582.446167,423.010345 580.884338,423.750885 
	C579.604004,424.357941 578.635010,425.698090 577.635864,426.810181 
	C568.418640,437.068359 556.787476,438.754150 544.114990,435.914307 
	C535.335205,433.946899 531.173157,428.512421 532.028748,421.019318 
	C532.173523,419.751434 532.773682,418.540649 532.977051,417.273529 
	C535.109863,403.986755 547.853943,392.222809 561.151001,390.849182 
	C562.873779,390.671204 564.385864,388.453644 565.995483,387.180817 
	C564.623840,385.795044 563.487549,383.937988 561.835754,383.113220 
	C557.159851,380.778320 551.921509,379.415253 547.569580,376.630371 
	C543.355103,373.933472 538.885193,370.086060 539.193298,364.601562 
	C539.642883,356.597107 541.385620,348.670776 545.807495,341.650757 
	C546.420410,340.677643 546.618835,339.443390 547.009155,338.330017 
	C537.763672,344.107239 530.483154,351.167633 524.900085,360.017456 
	C521.311890,365.705170 520.219971,370.619965 525.889282,375.696289 
	C529.706726,379.114441 533.013428,383.103058 536.743958,387.042786 
	C525.404053,392.140839 518.588135,401.321503 515.436523,413.203186 
	C513.741882,419.592133 513.058472,426.243164 511.537842,432.686035 
	C509.689758,440.516449 510.467316,442.409149 517.733032,445.336304 
	C518.632874,445.698853 519.413208,446.372040 520.322083,446.696289 
	C530.367981,450.280487 540.221985,454.395416 551.282410,454.091339 
	C559.172119,453.874390 565.940613,450.878296 571.438904,447.559540 
	C573.618591,453.991943 575.930115,460.243439 577.817810,466.620422 
	C578.787292,469.895325 581.207825,470.992645 583.836243,470.894470 
	C590.358154,470.650909 596.924683,470.251923 603.356079,469.199554 
	C619.749390,466.517090 632.754272,457.816925 643.824402,445.736145 
	C651.455444,437.408417 656.056152,427.761139 655.871704,416.509155 
	C655.676270,404.587830 650.851196,394.326019 641.287048,386.960419 
	C636.005310,382.892792 630.268860,378.438995 622.911804,382.987274 
	C621.261047,384.007812 619.773376,385.289703 618.137695,386.337372 
	C601.666443,396.886932 598.706665,420.716370 608.301453,436.644714 
	C609.062927,437.908966 610.923523,438.511200 613.048218,439.943451 
	C609.448242,421.533630 613.994446,407.318207 629.009277,396.906738 
	C637.998901,402.468475 642.116455,410.661957 641.962524,422.047852 
M688.270813,339.002930 
	C689.739319,339.664581 691.163025,340.460602 692.683411,340.966461 
	C704.347412,344.847382 711.851501,353.213440 717.291443,363.771088 
	C718.468506,366.055450 718.760742,368.181000 716.917786,370.711365 
	C711.973389,377.500214 705.298401,381.094727 697.373169,383.167603 
	C695.665405,383.614227 694.450256,385.944427 693.008179,387.407013 
	C694.517456,388.604401 695.893616,390.599213 697.556458,390.876862 
	C715.825134,393.927216 727.920593,408.685120 725.968140,427.516693 
	C725.881226,428.355133 725.550110,429.392273 724.960083,429.921539 
	C712.568176,441.038727 689.413635,439.483521 679.081909,424.861176 
	C677.276184,422.305481 675.002502,421.037750 672.554749,422.433533 
	C671.492310,423.039398 671.463379,426.096466 671.578735,428.003052 
	C671.864075,432.719818 673.172302,437.463806 672.834778,442.107086 
	C672.393494,448.177917 670.876343,454.214233 664.384216,457.175262 
	C657.693909,460.226715 650.814148,462.383789 643.332336,462.022034 
	C641.880615,461.951874 640.415100,462.167206 638.955933,462.250824 
	C650.541870,468.996765 662.786072,471.517059 675.606934,470.849091 
	C677.229492,470.764557 679.507202,468.840973 680.166809,467.230927 
	C682.776917,460.859406 684.863831,454.273590 687.095154,447.908722 
	C689.517090,449.007141 692.755981,450.893066 696.246338,451.944397 
	C699.905029,453.046417 703.787476,453.763916 707.602600,453.924164 
	C721.534485,454.509338 733.806030,448.914093 745.874023,442.904266 
	C746.951172,442.367828 748.019653,440.300171 747.878662,439.084442 
	C747.132935,432.656433 746.262268,426.218658 744.945312,419.886108 
	C741.946167,405.464539 736.176270,392.865936 722.173157,387.082947 
	C726.649231,381.969666 731.481201,376.911377 735.662903,371.362915 
	C736.769592,369.894531 736.616150,366.586334 735.771118,364.688629 
	C731.782776,355.731750 725.919861,348.112640 718.334106,341.790314 
	C702.821655,328.861420 685.281433,322.137634 664.985291,325.132172 
	C655.253296,326.568024 647.288452,331.660126 641.444824,339.956055 
	C636.920105,346.379669 634.963440,353.648621 634.165649,361.141937 
	C633.796875,364.606506 634.278687,369.848602 636.503052,371.635437 
	C654.259827,385.899475 681.298889,382.812836 693.922485,361.246063 
	C694.743530,359.843292 694.784729,357.984009 695.345154,355.699066 
	C693.663818,356.320801 692.764221,356.583679 691.931641,356.985382 
	C691.359009,357.261627 690.856201,357.702850 690.361511,358.117310 
	C679.779602,366.983124 667.875549,369.091400 654.828918,364.925934 
	C650.356567,363.498077 648.769897,360.471924 650.122864,355.927734 
	C650.799011,353.656616 651.900330,351.447205 653.154419,349.423737 
	C660.144836,338.144836 673.177002,334.175934 688.270813,339.002930 
M600.450134,263.025970 
	C595.149353,270.513031 594.002258,279.019257 594.346985,287.759888 
	C589.837891,286.251831 585.382935,284.077759 580.711792,283.405212 
	C576.601379,282.813385 571.305359,280.772308 568.282410,285.392822 
	C561.704895,295.446442 556.898987,306.388733 556.084839,318.534058 
	C555.303955,330.183105 556.923706,341.434418 560.731079,352.739258 
	C569.410400,378.510193 596.680298,387.402557 619.470276,373.777649 
	C621.464722,372.585266 623.644592,369.880280 623.777588,367.755157 
	C624.113098,362.392517 624.102661,356.773071 622.851562,351.589447 
	C618.779663,334.719208 600.338257,321.298279 580.902893,325.965027 
	C582.632202,327.046417 583.523254,327.837860 584.564575,328.219299 
	C597.648376,333.011902 605.179565,342.771637 608.746155,355.779419 
	C609.359192,358.015411 610.481445,361.175110 606.773987,363.082336 
	C598.331665,367.425415 583.600952,364.820587 578.132324,357.424683 
	C566.489136,341.678040 564.631165,322.900208 575.103455,305.226593 
	C576.624207,302.660156 577.550110,298.227142 582.169983,299.044037 
	C590.505554,300.517944 597.679688,304.270294 603.848694,310.173767 
	C605.112000,311.382690 607.645569,311.264221 609.593506,311.757629 
	C609.797546,310.033203 610.474548,308.204193 610.120483,306.603210 
	C608.851685,300.866669 606.702454,295.539459 607.804932,289.199005 
	C609.766235,277.918701 615.470337,269.706390 625.324585,264.479828 
	C627.500549,263.325745 631.321289,263.221222 633.453918,264.366516 
	C648.529846,272.462982 654.963745,289.046570 649.009399,305.494507 
	C648.361023,307.285553 649.174988,309.605957 649.310669,311.680847 
	C651.362366,311.123291 653.687195,310.999115 655.407227,309.915192 
	C658.680908,307.852295 661.289612,304.448792 664.758362,303.049957 
	C669.523804,301.128235 675.598816,298.426056 679.722290,299.913300 
	C685.465942,301.984985 690.193970,307.344604 694.825073,311.844147 
	C697.416931,314.362427 698.935486,317.985504 701.604980,322.152496 
	C701.795715,319.539246 702.182556,318.098785 701.953552,316.764038 
	C700.139526,306.190399 696.942444,296.096558 691.385742,286.823090 
	C689.745178,284.085205 687.842590,282.294861 684.356262,282.983490 
	C677.591309,284.319824 670.806152,285.554077 665.162170,286.617249 
	C663.688904,280.435486 663.108154,273.221252 660.263367,267.050781 
	C654.238770,253.983109 642.301758,246.239426 631.101746,238.052765 
	C630.359436,237.510178 628.566772,237.580276 627.735535,238.108932 
	C617.410522,244.675781 608.504517,252.839844 600.450134,263.025970 
M869.502808,540.998840 
	C875.157043,541.377563 872.518494,537.694885 872.746765,535.333008 
	C855.925476,535.333008 839.517334,535.333008 823.178467,535.333008 
	C823.178467,537.291687 823.178467,538.916504 823.178467,540.999634 
	C827.465332,540.999634 831.619629,540.710510 835.702087,541.126343 
	C837.629333,541.322693 839.418884,542.870667 841.270813,543.806213 
	C840.363220,545.518005 839.830933,547.635803 838.488220,548.876831 
	C828.364380,558.234131 818.111694,567.453186 807.834595,576.643127 
	C802.842407,581.107300 797.741699,585.452087 792.629517,589.779419 
	C790.379150,591.684204 789.168640,593.629456 791.101074,596.480103 
	C793.815186,600.483948 796.439392,604.548950 799.086426,608.598022 
	C807.982544,622.205933 816.915710,635.789978 825.739441,649.444702 
	C828.804382,654.187744 826.833740,657.746277 821.170715,657.985046 
	C818.891052,658.081238 816.604065,658.000916 814.265015,658.000916 
	C814.265015,660.223572 814.265015,661.953796 814.265015,663.727295 
	C835.606140,663.727295 856.683411,663.727295 877.701416,663.727295 
	C877.701416,661.710510 877.701416,659.971375 877.701416,657.654602 
	C868.815430,659.996948 863.985168,655.089905 860.155457,648.466736 
	C859.512085,647.354126 859.196655,646.042358 858.501892,644.970337 
	C845.548279,624.981812 832.639954,604.962769 819.473022,585.115295 
	C817.916504,582.769104 817.715820,581.548767 819.721863,579.757996 
	C832.574890,568.284302 845.489075,556.875671 858.157349,545.200684 
	C861.272766,542.329590 864.484985,540.819397 869.502808,540.998840 
M774.377991,767.163025 
	C782.659790,762.191711 783.427856,752.488281 776.175781,744.449890 
	C781.611267,737.314331 781.487000,730.318237 775.836426,725.334839 
	C769.974060,720.164856 757.577942,720.781921 752.002502,726.521301 
	C747.570740,731.083374 747.915405,739.080872 752.793030,744.514282 
	C752.480469,744.897766 752.190552,745.307922 751.847290,745.667053 
	C744.550232,753.301147 747.321716,765.463928 757.529419,767.895325 
	C762.662659,769.118042 768.380249,767.887573 774.377991,767.163025 
M688.651672,761.999756 
	C684.520691,760.509399 680.389771,759.019104 676.209229,757.510864 
	C675.538696,758.903992 674.718140,760.608887 673.893433,762.322327 
	C680.020996,769.368408 687.859924,770.139465 695.932007,768.484741 
	C702.623535,767.113037 705.285156,761.997803 705.071045,756.171875 
	C704.778076,748.203857 705.307861,740.197815 704.815125,732.249634 
	C704.661072,729.765015 702.878052,726.771301 700.908447,725.127930 
	C695.734314,720.810852 689.123779,721.084106 683.226379,722.499390 
	C675.980225,724.238586 672.743835,726.154419 672.994141,735.829529 
	C673.049988,737.989014 673.096741,740.156189 672.983032,742.311096 
	C672.716125,747.369812 675.557068,750.778015 679.875610,751.744873 
	C685.264465,752.951416 690.965515,752.764038 696.681030,753.189575 
	C697.525208,761.156006 697.026611,761.835205 688.651672,761.999756 
M717.893433,751.989807 
	C723.447021,752.382141 729.000610,752.774475 734.889771,753.190491 
	C735.517090,755.959167 735.607605,760.038940 731.859314,761.360657 
	C725.595093,763.569519 719.645203,761.854858 715.073181,756.755737 
	C710.776062,761.521362 710.870056,763.190430 715.566467,765.857361 
	C721.834412,769.416809 728.528564,770.278259 735.307434,767.788940 
	C739.351013,766.304077 742.079651,763.412903 742.026917,758.566101 
	C741.927490,749.412598 742.094971,740.255127 741.905518,731.104492 
	C741.873108,729.539490 740.973145,727.660400 739.868530,726.505554 
	C734.139038,720.515442 726.855896,721.245911 719.786560,722.769958 
	C713.574829,724.108948 710.010620,727.159790 710.956116,734.542358 
	C711.249756,736.835022 711.224548,739.223022 710.956238,741.521973 
	C710.363586,746.600037 712.172852,750.042603 717.893433,751.989807 
M627.249695,765.961731 
	C628.749207,764.958923 631.136719,764.619812 629.447937,761.716064 
	C628.216675,759.598877 627.318604,758.155151 624.576843,759.671570 
	C622.926941,760.584045 620.968994,761.062744 619.089111,761.407898 
	C616.118042,761.953247 612.842590,763.153687 610.147705,762.419250 
	C604.135132,760.780640 606.174744,755.604370 606.166016,750.998352 
	C612.921082,750.998352 619.387756,750.908081 625.849854,751.039185 
	C628.759705,751.098206 630.221863,750.231323 630.042786,747.070618 
	C629.863953,743.914551 630.047119,740.739685 629.990906,737.574524 
	C629.902039,732.571106 627.938110,728.652649 622.805237,727.399353 
	C619.351501,726.556091 615.558960,725.557617 612.198730,726.169739 
	C602.923096,727.859558 598.129333,729.175415 598.917603,740.253296 
	C599.377686,746.719482 598.993591,753.245239 599.003418,759.744202 
	C599.011902,765.391907 602.492920,769.288208 608.252319,768.873169 
	C614.352051,768.433594 620.380188,767.001099 627.249695,765.961731 
M552.000427,761.412476 
	C552.000427,763.522339 552.000427,765.632202 552.000427,767.700562 
	C554.615234,767.700562 556.676697,767.700562 558.998535,767.700562 
	C558.998535,756.436462 559.083618,745.468079 558.956848,734.502075 
	C558.905701,730.079651 554.788147,725.748718 550.448853,726.130249 
	C545.425476,726.571838 540.489075,728.003052 535.292419,729.049377 
	C534.166260,728.554871 532.464844,727.405457 530.657410,727.203186 
	C529.886963,727.116882 528.133301,728.999084 528.119263,730.004944 
	C527.942810,742.596680 528.003662,755.191833 528.003662,767.674072 
	C531.001099,767.674072 533.399841,767.674072 535.999512,767.674072 
	C535.999512,759.207336 535.999207,751.064880 535.999573,742.922363 
	C535.999878,737.097595 538.871216,733.828552 544.707458,733.007263 
	C549.901672,732.276245 551.928528,734.005310 551.983276,739.448547 
	C552.053650,746.441895 552.000427,753.436462 552.000427,761.412476 
M478.463867,765.067444 
	C482.939758,769.307129 488.565643,769.095398 494.099640,768.966980 
	C500.633270,768.815247 505.343719,764.771790 505.994507,759.036133 
	C506.948792,750.625732 503.823303,745.754822 496.335815,744.007996 
	C493.042236,743.239624 489.552704,742.921936 486.523682,741.568298 
	C484.935638,740.858582 483.042419,738.145325 483.310028,736.715515 
	C483.584839,735.247620 486.355377,733.184570 487.981201,733.230774 
	C492.878876,733.369812 497.751007,734.408386 502.976898,735.144592 
	C503.455109,734.176819 504.295807,732.475464 505.282593,730.478516 
	C499.622711,726.700684 493.453217,725.985168 487.087982,726.001282 
	C481.826447,726.014526 476.687775,728.919067 475.982330,732.298157 
	C474.394562,739.903320 475.948151,744.595398 481.915161,747.270447 
	C485.958282,749.082886 490.496796,749.779724 494.796753,751.033752 
	C497.577362,751.844604 499.529816,753.700195 498.880310,756.648804 
	C498.248962,759.515015 496.921783,762.658813 493.030060,761.939636 
	C487.965851,761.003723 482.981384,759.636108 477.435028,758.330017 
	C477.031555,758.920105 475.954987,760.494690 474.767609,762.231262 
	C475.799805,763.194946 476.751801,764.083740 478.463867,765.067444 
M591.425964,728.885864 
	C587.543274,727.924683 583.703308,726.433167 579.768738,726.116211 
	C572.325500,725.516602 564.853943,728.039246 565.872314,738.375183 
	C566.553467,745.288635 566.078491,752.324707 565.973267,759.303711 
	C565.908508,763.600281 567.859375,766.436096 571.639038,768.200134 
	C577.164185,770.779053 590.506592,768.388550 595.011719,763.943665 
	C594.162598,762.286560 593.298767,760.600769 592.647461,759.329773 
	C588.690430,760.355469 585.006226,761.350769 581.301270,762.261047 
	C576.265747,763.498169 573.162598,761.259827 573.027222,756.134949 
	C572.895569,751.152344 572.996094,746.163452 572.999023,741.177368 
	C573.003174,734.104370 575.757812,731.773438 582.682861,733.038879 
	C584.257507,733.326599 586.143372,733.334839 587.301575,734.228821 
	C592.122009,737.949219 593.587891,734.727051 594.984924,730.682495 
	C594.086121,730.147095 593.150269,729.589661 591.425964,728.885864 
M518.360107,727.011353 
	C516.287292,727.011353 514.214478,727.011353 512.347473,727.011353 
	C512.347473,741.116821 512.347473,754.506348 512.347473,767.812561 
	C514.981323,767.812561 517.266846,767.812561 520.010437,767.812561 
	C520.010437,757.531677 520.068481,747.429749 519.978088,737.329163 
	C519.947571,733.914062 519.541321,730.502380 518.360107,727.011353 
M517.705872,711.960327 
	C515.937134,712.334045 513.756653,712.214172 512.529602,713.237366 
	C511.544861,714.058777 511.021179,716.575195 511.556122,717.777344 
	C512.176208,719.170898 514.051880,720.308044 515.626587,720.858276 
	C516.532715,721.174805 518.892090,720.176758 518.928345,719.654602 
	C519.101990,717.152527 518.705688,714.610901 517.705872,711.960327 
z"/>
<path fill="#971623" opacity="1.000000" stroke="none" 
	d="
M1.000000,535.428467 
	C13.994335,535.000061 26.989706,535.085876 39.982151,534.929138 
	C42.645454,534.897034 43.837009,535.713623 45.099335,538.098145 
	C57.944241,562.361572 70.969315,586.529724 83.974838,610.707947 
	C85.641869,613.806946 87.485054,616.811279 89.389786,620.107178 
	C101.014839,598.935913 112.469177,578.067627 123.932320,557.204163 
	C127.264969,551.138489 130.637222,545.094543 133.962372,539.024780 
	C135.429428,536.346863 137.068161,534.783020 140.694290,534.871582 
	C153.978088,535.195862 167.274597,535.000000 180.780731,535.000000 
	C180.780731,537.123657 180.780731,538.855347 180.780731,540.796326 
	C179.979095,540.873840 179.334839,541.047974 178.717743,540.979065 
	C168.924652,539.885193 165.756165,543.342773 165.875092,553.790283 
	C166.225906,584.606201 166.000351,615.428650 166.000397,646.248535 
	C166.000412,655.806519 168.111526,657.896973 177.871933,657.999817 
	C178.694641,658.008484 179.517532,658.000977 180.789261,658.000977 
	C180.873077,659.884277 180.950806,661.630432 181.042816,663.697632 
	C161.098633,663.697632 141.355362,663.697632 121.209816,663.697632 
	C121.136749,662.035095 121.060730,660.305481 120.983742,658.553833 
	C124.424828,658.035217 127.909370,658.195984 130.688446,656.873840 
	C132.904205,655.819763 135.749405,652.974121 135.772690,650.895325 
	C136.102341,621.487305 135.997025,592.074524 135.997025,561.110962 
	C130.554337,570.784546 125.759453,579.083557 121.176094,587.497803 
	C110.446861,607.194885 99.850281,626.964294 89.068413,646.632263 
	C88.454529,647.752136 86.701866,648.796265 85.406563,648.891846 
	C81.437157,649.184937 77.432327,648.998413 73.618317,648.998413 
	C58.546383,619.683289 43.591366,590.595581 27.999910,560.269958 
	C27.999910,573.564270 27.999939,585.475098 27.999903,597.385925 
	C27.999849,614.045349 27.999119,630.704712 27.999937,647.364136 
	C28.000326,655.282532 30.483686,657.806946 38.486351,657.994812 
	C40.129902,658.033447 41.775131,658.000427 43.708412,658.000427 
	C43.708412,659.979675 43.708412,661.715271 43.708412,663.999817 
	C29.822449,663.999817 15.879882,663.999817 1.468657,663.999878 
	C1.000000,662.285645 1.000000,660.571289 1.449424,658.428711 
	C14.252671,658.739502 17.223116,654.980530 17.097473,642.983521 
	C16.797422,614.333191 16.881784,585.676819 17.051130,557.024353 
	C17.134956,542.841248 16.523859,540.483032 1.000000,541.000000 
	C1.000000,539.285645 1.000000,537.571289 1.000000,535.428467 
z"/>
<path fill="#961623" opacity="1.000000" stroke="none" 
	d="
M1258.000000,540.571533 
	C1254.333862,540.999817 1250.662598,541.123962 1247.003052,540.967712 
	C1242.491699,540.775146 1239.787964,543.010010 1237.627930,546.756226 
	C1228.311035,562.914185 1218.840210,578.983337 1209.437988,595.092102 
	C1206.679810,599.817627 1203.871094,604.518311 1201.298950,609.344116 
	C1200.733398,610.405273 1201.011475,611.950073 1201.009399,613.272339 
	C1200.991699,624.270630 1200.998657,635.268982 1200.999512,646.267273 
	C1201.000122,654.760010 1203.942017,657.798340 1212.390625,657.994934 
	C1214.547119,658.045166 1216.957153,657.607117 1216.994507,660.951355 
	C1217.031616,664.262451 1214.700317,664.004578 1212.492432,664.003357 
	C1198.494629,663.995605 1184.496704,663.999451 1170.498901,663.999573 
	C1165.856445,663.999634 1161.213989,663.999573 1156.288208,663.999573 
	C1156.288208,662.001465 1156.288208,660.270874 1156.286621,658.533936 
	C1159.793945,658.028442 1163.299683,657.505737 1166.812622,657.036377 
	C1170.748535,656.510498 1171.878296,653.557434 1171.930908,650.368530 
	C1172.109375,639.539795 1172.275635,628.694580 1171.817627,617.882324 
	C1171.692993,614.943604 1169.581787,611.965637 1167.992920,609.232056 
	C1156.427124,589.334229 1143.925781,569.919250 1133.515381,549.439148 
	C1128.975342,540.507812 1122.912964,540.735168 1115.280029,541.077698 
	C1115.280029,538.981262 1115.280029,537.248352 1115.280029,535.255798 
	C1134.368530,535.255798 1153.447632,535.255798 1172.762695,535.255798 
	C1172.762695,537.092224 1172.762695,538.822754 1172.762695,540.999573 
	C1170.168335,540.999573 1167.709839,540.952026 1165.253906,541.010010 
	C1160.837769,541.114136 1159.752563,543.028870 1162.009521,546.987610 
	C1166.952026,555.657349 1171.976074,564.280640 1176.992310,572.908142 
	C1182.413086,582.231445 1187.862793,591.537903 1193.738525,601.603394 
	C1204.993652,582.022644 1215.977661,562.913391 1227.688354,542.540100 
	C1223.491211,541.726257 1220.082153,541.065125 1216.301025,540.331909 
	C1216.301025,539.039062 1216.301025,537.297852 1216.301025,535.000000 
	C1229.838501,535.000000 1243.450562,535.000000 1257.531372,535.000000 
	C1258.000000,536.714355 1258.000000,538.428711 1258.000000,540.571533 
z"/>
<path fill="#FFFFFF" opacity="1.000000" stroke="none" 
	d="
M1.000000,541.468628 
	C16.523859,540.483032 17.134956,542.841248 17.051130,557.024353 
	C16.881784,585.676819 16.797422,614.333191 17.097473,642.983521 
	C17.223116,654.980530 14.252671,658.739502 1.449424,658.000244 
	C1.000000,619.312439 1.000000,580.624878 1.000000,541.468628 
z"/>
<path fill="#971623" opacity="1.000000" stroke="none" 
	d="
M680.685181,626.999390 
	C663.229309,626.999390 646.235657,627.050537 629.242920,626.951538 
	C626.235046,626.934021 624.917419,627.604797 623.827087,630.886169 
	C621.811157,636.953186 618.581055,642.614685 615.886047,648.458618 
	C613.435364,653.772766 614.678406,656.157043 620.306152,656.996582 
	C623.672546,657.498962 627.043030,657.974182 630.719849,658.506165 
	C630.719849,660.009644 630.719849,661.746643 630.719849,663.743652 
	C616.651245,663.743652 602.572449,663.743652 588.247253,663.743652 
	C588.247253,661.922424 588.247253,660.190247 588.247253,658.343567 
	C590.916443,658.036133 593.538269,657.974609 596.041077,657.397095 
	C601.704407,656.090271 602.761475,650.702148 604.692810,646.496033 
	C610.528564,633.786560 615.914795,620.870789 621.475647,608.035156 
	C629.328979,589.907837 637.169006,571.774719 645.042236,553.656067 
	C647.473999,548.059937 649.896118,542.454285 652.570068,536.973755 
	C653.040649,536.009216 654.706299,535.166382 655.874329,535.089233 
	C659.523621,534.847961 663.253784,535.397522 666.850342,534.900513 
	C671.411316,534.270081 673.243958,536.689880 674.828857,540.255310 
	C679.799561,551.437927 684.888916,562.568115 689.970825,573.701050 
	C700.853638,597.541687 711.857239,621.327820 722.617615,645.223511 
	C728.164917,657.542419 733.175537,660.391968 746.666382,657.977234 
	C751.904663,657.039673 753.990051,654.469910 753.991943,648.811584 
	C754.002930,616.157715 753.998718,583.503845 753.999329,550.849976 
	C753.999451,543.450317 751.526733,541.025330 743.955261,541.000366 
	C742.482544,540.995544 741.009766,540.999695 739.270874,540.999695 
	C739.270874,538.971924 739.270874,537.236938 739.270874,535.249329 
	C758.713257,535.249329 778.122375,535.249329 797.765015,535.249329 
	C797.765015,537.098938 797.765015,538.829956 797.765015,540.658081 
	C797.176819,540.787109 796.714844,540.970398 796.249939,540.978333 
	C784.058960,541.188416 782.999329,542.287537 782.999390,554.768677 
	C782.999573,585.256714 782.999451,615.744751 782.999451,646.232788 
	C782.999451,655.880920 785.031494,657.894592 794.878784,658.000183 
	C795.700867,658.009033 796.523132,658.001343 797.788696,658.001343 
	C797.872253,659.893127 797.949463,661.641174 798.040405,663.700195 
	C758.422180,663.700195 719.012085,663.700195 679.171631,663.700195 
	C679.088989,662.136658 678.996765,660.392517 678.870361,658.000549 
	C682.312988,658.000549 685.580383,658.069397 688.843811,657.985840 
	C695.124939,657.825134 696.997742,654.460938 694.333008,648.799194 
	C691.389648,642.545532 688.647583,636.191650 686.010925,629.801819 
	C685.027100,627.417419 683.554077,626.572876 680.685181,626.999390 
M635.647522,621.000000 
	C650.912415,621.000000 666.177307,621.000000 681.846680,621.000000 
	C672.929504,601.522034 664.201599,582.457520 655.080811,562.534729 
	C646.078491,582.180786 637.341370,601.248230 628.290588,621.000000 
	C631.085205,621.000000 632.891602,621.000000 635.647522,621.000000 
z"/>
<path fill="#961623" opacity="1.000000" stroke="none" 
	d="
M1099.929443,601.019409 
	C1095.321533,603.095886 1091.086548,605.126282 1086.880005,607.143005 
	C1093.718628,617.549438 1100.510254,629.118958 1108.535278,639.758179 
	C1117.020142,651.007263 1130.093872,657.183105 1146.070557,651.959351 
	C1149.784546,650.744995 1149.796753,650.782227 1151.008179,654.246765 
	C1139.734619,661.498718 1127.425415,664.941223 1114.032593,663.975098 
	C1098.350342,662.843933 1085.130127,656.746216 1075.987671,643.570618 
	C1066.893555,630.464539 1058.180298,617.093567 1049.363159,603.796936 
	C1048.588501,602.628784 1048.281738,601.150391 1047.639282,599.514893 
	C1053.346191,598.984314 1058.647583,598.575684 1063.928223,597.983337 
	C1075.795288,596.651917 1084.088867,590.393188 1088.201294,579.224426 
	C1091.904663,569.166626 1090.274170,559.885315 1083.101807,551.582153 
	C1076.775391,544.258240 1068.954102,540.780823 1059.348755,540.982727 
	C1054.722778,541.079956 1050.092896,540.999451 1044.999878,540.999451 
	C1044.999878,543.156677 1044.999878,544.938782 1044.999878,546.720886 
	C1044.999878,580.046997 1044.999756,613.373108 1044.999878,646.699219 
	C1044.999878,655.620239 1047.304932,657.920471 1056.330688,657.998779 
	C1057.655396,658.010254 1058.980347,658.000305 1060.782104,658.000305 
	C1060.871582,659.866516 1060.955322,661.613953 1061.054565,663.685913 
	C1040.799927,663.685913 1020.719604,663.685913 1000.218506,663.685913 
	C1000.140930,662.059326 1000.058472,660.329285 999.947388,658.000488 
	C1002.153809,658.000488 1004.093323,658.065552 1006.027100,657.988464 
	C1012.176758,657.743347 1015.931580,654.378784 1015.950623,648.357117 
	C1016.054504,615.531250 1016.037781,582.704834 1015.962097,549.878723 
	C1015.950012,544.638062 1012.299988,541.176453 1007.099426,541.011169 
	C1004.950195,540.942810 1002.796936,540.999817 1000.223083,540.999817 
	C1000.134583,539.081238 1000.054260,537.340393 999.946289,535.000305 
	C1001.959473,535.000305 1003.735229,535.000305 1005.510925,535.000305 
	C1030.505493,535.000366 1055.501465,535.170654 1080.494263,534.951660 
	C1104.681030,534.739746 1121.644653,559.029602 1114.364258,581.435486 
	C1111.677368,589.704163 1107.066650,595.955261 1099.929443,601.019409 
z"/>
<path fill="#971623" opacity="1.000000" stroke="none" 
	d="
M491.000458,576.000000 
	C491.000397,568.335327 490.837128,561.166016 491.040253,554.007141 
	C491.313965,544.360718 487.773499,540.063110 478.209900,540.988892 
	C477.390289,541.068237 476.556305,540.999329 475.219849,540.999329 
	C475.129272,539.165466 475.043274,537.423950 474.935425,535.240723 
	C476.526978,535.154968 477.963654,535.010681 479.400391,535.010010 
	C507.725861,534.996765 536.053589,534.785828 564.375916,535.080627 
	C581.305359,535.256775 593.460999,549.073853 592.774902,565.218201 
	C592.226257,578.125549 586.280518,587.997498 570.241394,593.495239 
	C578.688782,595.396423 585.780334,599.185913 590.981873,605.793640 
	C596.114319,612.313477 599.036011,619.962158 598.892578,628.207703 
	C598.598083,645.148315 588.607849,658.861633 571.429199,662.931091 
	C568.292053,663.674316 564.976868,663.945740 561.742554,663.955139 
	C534.750305,664.033630 507.757690,663.999634 480.765198,663.999634 
	C478.971405,663.999634 477.177612,663.999634 475.195557,663.999634 
	C475.195557,661.956116 475.195557,660.336487 475.195557,658.554321 
	C478.563019,658.042542 482.127777,657.796326 485.518188,656.894470 
	C488.363098,656.137756 490.192566,654.173279 490.031372,650.754272 
	C489.835419,646.597961 489.922913,642.424622 489.987549,638.260254 
	C490.307068,617.673218 490.659576,597.086731 491.000458,576.000000 
M544.306641,591.995850 
	C549.644836,590.022888 554.306946,587.266663 557.949524,582.619446 
	C568.883179,568.670349 562.682068,550.112793 547.664429,543.397339 
	C537.892090,539.027405 527.357605,541.503967 517.370117,540.949646 
	C517.370117,580.452942 517.370117,619.169434 517.370117,658.000122 
	C523.232849,658.000122 528.731384,658.164062 534.216858,657.966187 
	C545.839111,657.546936 555.976624,654.262390 563.367249,644.269104 
	C570.863770,634.132568 571.397339,619.889648 564.840210,609.392883 
	C558.765320,599.668213 549.583679,594.911316 537.678040,593.655884 
	C540.118042,592.962219 541.805359,592.482483 544.306641,591.995850 
z"/>
<path fill="#961623" opacity="1.000000" stroke="none" 
	d="
M446.165649,551.049622 
	C445.570648,541.880066 445.570648,541.880066 431.276428,540.689941 
	C431.276428,538.987244 431.276428,537.254150 431.276428,535.253906 
	C445.035400,535.253906 458.782196,535.253906 472.763977,535.253906 
	C472.763977,537.097473 472.763977,538.828674 472.763977,540.999573 
	C470.998352,540.999573 469.321930,541.265137 467.761108,540.952881 
	C461.487213,539.697998 457.930115,545.565308 457.947235,551.367554 
	C458.051941,586.861206 457.999664,622.355469 457.999664,657.849487 
	C457.999664,659.671570 457.999664,661.493652 457.999664,663.996155 
	C452.428345,663.996155 447.001251,664.078613 441.581268,663.919312 
	C440.619202,663.891052 439.486237,663.040771 438.770172,662.260071 
	C424.771149,646.996948 410.840424,631.671143 396.857300,616.393372 
	C385.628143,604.124512 374.305969,591.940674 363.107391,579.644043 
	C357.283020,573.248596 351.636932,566.690735 344.999939,559.175354 
	C344.999939,561.974731 344.999939,563.529053 344.999939,565.083435 
	C344.999939,592.078918 345.130096,619.075317 344.924377,646.069275 
	C344.858673,654.688904 345.771973,657.532288 356.589508,657.995483 
	C357.556763,658.036926 358.527283,658.001038 359.746094,658.001038 
	C359.746094,660.053772 359.746094,661.791016 359.746094,663.765442 
	C345.915405,663.765442 332.167999,663.765442 318.215088,663.765442 
	C318.215088,661.862244 318.215088,660.129211 318.215088,657.998657 
	C320.549835,657.998657 322.687653,658.134521 324.802612,657.972412 
	C330.506897,657.535095 332.985718,654.868958 332.989136,649.151672 
	C333.009186,615.657288 333.006195,582.162903 332.989777,548.668518 
	C332.987732,544.481567 330.005676,541.302002 325.765198,541.029724 
	C323.316925,540.872498 320.850281,541.001099 318.200531,541.001099 
	C318.200531,538.959839 318.200531,537.339722 318.200531,535.376770 
	C319.162323,535.261780 320.253693,535.020325 321.345551,535.017822 
	C333.343475,534.990662 345.344025,534.877136 357.337006,535.122192 
	C359.336639,535.163025 361.803711,536.329346 363.199799,537.791809 
	C369.545990,544.439453 375.537720,551.423462 381.747192,558.203979 
	C393.200317,570.710327 404.736786,583.140442 416.198853,595.638611 
	C422.749969,602.781982 429.244751,609.977356 435.721466,617.188354 
	C438.869446,620.693298 441.917847,624.287598 445.988281,628.963745 
	C445.988281,616.641418 445.988281,605.754517 446.335754,594.090515 
	C446.775879,579.807068 446.878601,566.300781 446.927063,552.794312 
	C446.929138,552.213684 446.430847,551.631226 446.165649,551.049622 
z"/>
<path fill="#961623" opacity="1.000000" stroke="none" 
	d="
M249.099579,663.999634 
	C222.957321,662.814209 201.285645,652.963806 186.545425,631.760193 
	C170.654770,608.901733 172.707870,579.634460 191.286743,558.011353 
	C203.029114,544.344910 217.951355,536.334045 234.936966,533.254456 
	C259.050201,528.882690 282.138458,533.205872 301.899750,548.564331 
	C314.084900,558.034607 322.880646,570.480957 325.916901,585.936218 
	C329.193604,602.615112 325.570862,618.285217 315.897308,632.176086 
	C304.517548,648.517029 288.536835,658.215698 269.058990,661.916565 
	C262.664642,663.131592 256.077911,663.334106 249.099579,663.999634 
M292.454712,623.950562 
	C292.969391,622.605408 293.593811,621.291016 293.981262,619.910217 
	C296.877289,609.588562 297.916718,599.219055 296.080078,588.489502 
	C293.257690,572.000977 286.531372,557.907104 272.532166,548.135498 
	C260.354218,539.635132 246.983017,538.208496 234.165054,545.615173 
	C216.464447,555.843262 208.176987,572.696838 206.127228,592.467773 
	C204.453735,608.609375 207.846207,623.994812 217.262894,637.457092 
	C226.365585,650.470520 238.187531,658.387573 255.169357,657.122131 
	C271.743134,655.887024 287.520752,639.865540 292.454712,623.950562 
z"/>
<path fill="#961622" opacity="1.000000" stroke="none" 
	d="
M641.979736,421.611328 
	C642.116455,410.661957 637.998901,402.468475 629.009277,396.906738 
	C613.994446,407.318207 609.448242,421.533630 613.048218,439.943451 
	C610.923523,438.511200 609.062927,437.908966 608.301453,436.644714 
	C598.706665,420.716370 601.666443,396.886932 618.137695,386.337372 
	C619.773376,385.289703 621.261047,384.007812 622.911804,382.987274 
	C630.268860,378.438995 636.005310,382.892792 641.287048,386.960419 
	C650.851196,394.326019 655.676270,404.587830 655.871704,416.509155 
	C656.056152,427.761139 651.455444,437.408417 643.824402,445.736145 
	C632.754272,457.816925 619.749390,466.517090 603.356079,469.199554 
	C596.924683,470.251923 590.358154,470.650909 583.836243,470.894470 
	C581.207825,470.992645 578.787292,469.895325 577.817810,466.620422 
	C575.930115,460.243439 573.618591,453.991943 571.438904,447.559540 
	C565.940613,450.878296 559.172119,453.874390 551.282410,454.091339 
	C540.221985,454.395416 530.367981,450.280487 520.322083,446.696289 
	C519.413208,446.372040 518.632874,445.698853 517.733032,445.336304 
	C510.467316,442.409149 509.689758,440.516449 511.537842,432.686035 
	C513.058472,426.243164 513.741882,419.592133 515.436523,413.203186 
	C518.588135,401.321503 525.404053,392.140839 536.743958,387.042786 
	C533.013428,383.103058 529.706726,379.114441 525.889282,375.696289 
	C520.219971,370.619965 521.311890,365.705170 524.900085,360.017456 
	C530.483154,351.167633 537.763672,344.107239 547.009155,338.330017 
	C546.618835,339.443390 546.420410,340.677643 545.807495,341.650757 
	C541.385620,348.670776 539.642883,356.597107 539.193298,364.601562 
	C538.885193,370.086060 543.355103,373.933472 547.569580,376.630371 
	C551.921509,379.415253 557.159851,380.778320 561.835754,383.113220 
	C563.487549,383.937988 564.623840,385.795044 565.995483,387.180847 
	C564.385864,388.453644 562.873779,390.671204 561.151001,390.849182 
	C547.853943,392.222809 535.109863,403.986755 532.977051,417.273529 
	C532.773682,418.540649 532.173523,419.751434 532.028748,421.019318 
	C531.173157,428.512421 535.335205,433.946899 544.114990,435.914307 
	C556.787476,438.754150 568.418640,437.068359 577.635864,426.810181 
	C578.635010,425.698090 579.604004,424.357941 580.884338,423.750885 
	C582.446167,423.010345 584.667908,422.204224 585.948608,422.810760 
	C586.893982,423.258484 587.441162,426.098450 587.045166,427.571289 
	C584.747864,436.115570 584.398682,444.444031 588.857483,452.413452 
	C589.465698,453.500610 590.814087,454.812012 591.904297,454.893799 
	C604.869507,455.866486 616.725342,453.220337 627.010071,444.567230 
	C634.281616,438.449310 639.470764,431.210602 641.979736,421.611328 
z"/>
<path fill="#961522" opacity="1.000000" stroke="none" 
	d="
M687.847778,339.001282 
	C673.177002,334.175934 660.144836,338.144836 653.154419,349.423737 
	C651.900330,351.447205 650.799011,353.656616 650.122864,355.927734 
	C648.769897,360.471924 650.356567,363.498077 654.828918,364.925934 
	C667.875549,369.091400 679.779602,366.983124 690.361511,358.117310 
	C690.856201,357.702850 691.359009,357.261627 691.931641,356.985382 
	C692.764221,356.583679 693.663818,356.320801 695.345154,355.699066 
	C694.784729,357.984009 694.743530,359.843292 693.922485,361.246063 
	C681.298889,382.812836 654.259827,385.899475 636.503052,371.635437 
	C634.278687,369.848602 633.796875,364.606506 634.165649,361.141937 
	C634.963440,353.648621 636.920105,346.379669 641.444824,339.956055 
	C647.288452,331.660126 655.253296,326.568024 664.985291,325.132172 
	C685.281433,322.137634 702.821655,328.861420 718.334106,341.790314 
	C725.919861,348.112640 731.782776,355.731750 735.771118,364.688629 
	C736.616150,366.586334 736.769592,369.894531 735.662903,371.362915 
	C731.481201,376.911377 726.649231,381.969666 722.173157,387.082947 
	C736.176270,392.865936 741.946167,405.464539 744.945312,419.886108 
	C746.262268,426.218658 747.132935,432.656433 747.878662,439.084442 
	C748.019653,440.300171 746.951172,442.367828 745.874023,442.904266 
	C733.806030,448.914093 721.534485,454.509338 707.602600,453.924164 
	C703.787476,453.763916 699.905029,453.046417 696.246338,451.944397 
	C692.755981,450.893066 689.517090,449.007141 687.095154,447.908722 
	C684.863831,454.273590 682.776917,460.859406 680.166809,467.230927 
	C679.507202,468.840973 677.229492,470.764557 675.606934,470.849091 
	C662.786072,471.517059 650.541870,468.996765 638.955933,462.250824 
	C640.415100,462.167206 641.880615,461.951874 643.332336,462.022034 
	C650.814148,462.383789 657.693909,460.226715 664.384216,457.175262 
	C670.876343,454.214233 672.393494,448.177917 672.834778,442.107086 
	C673.172302,437.463806 671.864075,432.719818 671.578735,428.003052 
	C671.463379,426.096466 671.492310,423.039398 672.554749,422.433533 
	C675.002502,421.037750 677.276184,422.305481 679.081909,424.861176 
	C689.413635,439.483521 712.568176,441.038727 724.960083,429.921539 
	C725.550110,429.392273 725.881226,428.355133 725.968140,427.516693 
	C727.920593,408.685120 715.825134,393.927216 697.556458,390.876862 
	C695.893616,390.599213 694.517456,388.604401 693.008179,387.406982 
	C694.450256,385.944427 695.665405,383.614227 697.373169,383.167603 
	C705.298401,381.094727 711.973389,377.500214 716.917786,370.711365 
	C718.760742,368.181000 718.468506,366.055450 717.291443,363.771088 
	C711.851501,353.213440 704.347412,344.847382 692.683411,340.966461 
	C691.163025,340.460602 689.739319,339.664581 687.847778,339.001282 
z"/>
<path fill="#961622" opacity="1.000000" stroke="none" 
	d="
M600.691040,262.740417 
	C608.504517,252.839844 617.410522,244.675781 627.735535,238.108932 
	C628.566772,237.580276 630.359436,237.510178 631.101746,238.052765 
	C642.301758,246.239426 654.238770,253.983109 660.263367,267.050781 
	C663.108154,273.221252 663.688904,280.435486 665.162170,286.617249 
	C670.806152,285.554077 677.591309,284.319824 684.356262,282.983490 
	C687.842590,282.294861 689.745178,284.085205 691.385742,286.823090 
	C696.942444,296.096558 700.139526,306.190399 701.953552,316.764038 
	C702.182556,318.098785 701.795715,319.539246 701.604980,322.152496 
	C698.935486,317.985504 697.416931,314.362427 694.825073,311.844147 
	C690.193970,307.344604 685.465942,301.984985 679.722290,299.913300 
	C675.598816,298.426056 669.523804,301.128235 664.758362,303.049957 
	C661.289612,304.448792 658.680908,307.852295 655.407227,309.915192 
	C653.687195,310.999115 651.362366,311.123291 649.310669,311.680847 
	C649.174988,309.605957 648.361023,307.285553 649.009399,305.494507 
	C654.963745,289.046570 648.529846,272.462982 633.453918,264.366516 
	C631.321289,263.221222 627.500549,263.325745 625.324585,264.479828 
	C615.470337,269.706390 609.766235,277.918701 607.804932,289.199005 
	C606.702454,295.539459 608.851685,300.866669 610.120483,306.603210 
	C610.474548,308.204193 609.797546,310.033203 609.593506,311.757629 
	C607.645569,311.264221 605.112000,311.382690 603.848694,310.173767 
	C597.679688,304.270294 590.505554,300.517944 582.169983,299.044037 
	C577.550110,298.227142 576.624207,302.660156 575.103455,305.226593 
	C564.631165,322.900208 566.489136,341.678040 578.132324,357.424683 
	C583.600952,364.820587 598.331665,367.425415 606.773987,363.082336 
	C610.481445,361.175110 609.359192,358.015411 608.746155,355.779419 
	C605.179565,342.771637 597.648376,333.011902 584.564575,328.219299 
	C583.523254,327.837860 582.632202,327.046417 580.902893,325.965027 
	C600.338257,321.298279 618.779663,334.719208 622.851562,351.589447 
	C624.102661,356.773071 624.113098,362.392517 623.777588,367.755157 
	C623.644592,369.880280 621.464722,372.585266 619.470276,373.777649 
	C596.680298,387.402557 569.410400,378.510193 560.731079,352.739258 
	C556.923706,341.434418 555.303955,330.183105 556.084839,318.534058 
	C556.898987,306.388733 561.704895,295.446442 568.282410,285.392822 
	C571.305359,280.772308 576.601379,282.813385 580.711792,283.405212 
	C585.382935,284.077759 589.837891,286.251831 594.346985,287.759888 
	C594.002258,279.019257 595.149353,270.513031 600.691040,262.740417 
z"/>
<path fill="#971623" opacity="1.000000" stroke="none" 
	d="
M974.020264,613.834473 
	C971.876831,613.834473 969.733398,613.834473 967.602051,613.834473 
	C967.056152,611.290344 966.103333,608.804688 966.072144,606.307495 
	C966.001770,600.684021 961.862854,599.326660 957.912109,599.151978 
	C947.800415,598.704712 937.655762,599.002747 927.263489,599.002747 
	C927.263489,618.059692 927.263489,636.788269 927.263489,655.991089 
	C943.315857,655.991089 959.274658,656.392517 975.195007,655.785828 
	C981.235168,655.555603 983.801636,652.624939 983.035706,646.899109 
	C982.710815,644.470886 982.981445,641.962952 982.981445,639.247314 
	C985.654602,639.247314 988.059509,639.247314 990.734863,639.247314 
	C990.734863,647.367981 990.734863,655.437134 990.734863,663.754395 
	C954.899597,663.754395 919.166809,663.754395 883.217285,663.754395 
	C883.217285,661.875610 883.217285,660.143005 883.217285,658.576538 
	C883.539734,658.303101 883.669434,658.099243 883.789429,658.104858 
	C898.218262,658.773865 899.167480,653.360229 899.075684,641.604492 
	C898.846619,612.279358 899.000244,582.951233 899.000183,553.624268 
	C899.000122,543.642395 896.467041,541.081421 886.510681,541.001099 
	C885.533447,540.993164 884.556030,541.000000 883.290344,541.000000 
	C883.290344,539.009766 883.290344,537.273193 883.290344,535.265991 
	C918.997314,535.265991 954.735657,535.265991 990.737244,535.265991 
	C990.737244,542.731506 990.737244,550.131165 990.737244,557.766357 
	C988.220703,557.766357 985.819641,557.766357 982.982117,557.766357 
	C982.982117,554.860107 982.987671,552.068237 982.980957,549.276367 
	C982.967285,543.652954 980.729004,541.077271 975.180969,541.038879 
	C959.359558,540.929382 943.536987,541.000366 927.357605,541.000366 
	C927.357605,558.200684 927.357605,575.264465 927.357605,592.956177 
	C938.430969,592.956177 949.701172,593.310791 960.930481,592.787842 
	C965.658813,592.567627 966.092102,587.608459 966.931213,583.898743 
	C967.319336,582.183044 966.997437,580.306763 966.997437,578.018188 
	C969.246887,578.018188 971.188843,578.018188 973.569458,578.547485 
	C974.012207,590.662659 974.016235,602.248535 974.020264,613.834473 
z"/>
<path fill="#961623" opacity="1.000000" stroke="none" 
	d="
M869.054504,540.998901 
	C864.484985,540.819397 861.272766,542.329590 858.157349,545.200684 
	C845.489075,556.875671 832.574890,568.284302 819.721863,579.757996 
	C817.715820,581.548767 817.916504,582.769104 819.473022,585.115295 
	C832.639954,604.962769 845.548279,624.981812 858.501892,644.970337 
	C859.196655,646.042358 859.512085,647.354126 860.155457,648.466736 
	C863.985168,655.089905 868.815430,659.996948 877.701416,657.654602 
	C877.701416,659.971375 877.701416,661.710510 877.701416,663.727295 
	C856.683411,663.727295 835.606140,663.727295 814.265015,663.727295 
	C814.265015,661.953796 814.265015,660.223572 814.265015,658.000916 
	C816.604065,658.000916 818.891052,658.081238 821.170715,657.985046 
	C826.833740,657.746277 828.804382,654.187744 825.739441,649.444702 
	C816.915710,635.789978 807.982544,622.205933 799.086426,608.598022 
	C796.439392,604.548950 793.815186,600.483948 791.101074,596.480103 
	C789.168640,593.629456 790.379150,591.684204 792.629517,589.779419 
	C797.741699,585.452087 802.842407,581.107300 807.834595,576.643127 
	C818.111694,567.453186 828.364380,558.234131 838.488220,548.876831 
	C839.830933,547.635803 840.363220,545.518005 841.270813,543.806213 
	C839.418884,542.870667 837.629333,541.322693 835.702087,541.126343 
	C831.619629,540.710510 827.465332,540.999634 823.178467,540.999634 
	C823.178467,538.916504 823.178467,537.291687 823.178467,535.333008 
	C839.517334,535.333008 855.925476,535.333008 872.746765,535.333008 
	C872.518494,537.694885 875.157043,541.377563 869.054504,540.998901 
z"/>
<path fill="#20B253" opacity="1.000000" stroke="none" 
	d="
M743.072388,313.081909 
	C757.555359,312.044617 770.917236,314.865906 782.734070,323.884644 
	C792.203064,331.111542 798.271667,340.473419 800.886780,351.931671 
	C802.009094,356.849213 801.936035,362.039612 802.416077,367.214355 
	C782.081055,364.755341 733.638611,345.004150 725.045898,335.088959 
	C726.309387,331.749817 728.158691,332.174866 731.083496,333.447296 
	C741.871033,338.140350 753.106689,340.825714 764.871521,337.900665 
	C768.153748,337.084625 771.119324,334.995300 775.492798,332.879211 
	C763.469910,318.020538 748.093811,317.800537 731.994934,318.037903 
	C743.295959,298.115631 743.007141,278.496246 731.569092,258.811401 
	C723.625000,267.737549 715.016479,291.079407 711.206665,314.422607 
	C707.572693,286.020020 714.042175,259.564026 726.741882,234.243332 
	C740.471069,240.234848 750.286499,254.273911 752.987976,267.760437 
	C755.189636,278.751343 754.664246,289.585144 749.927185,299.864319 
	C747.991760,304.064117 745.207031,307.872467 742.338013,312.289673 
	C741.703979,313.057281 741.540710,313.394165 741.377441,313.731018 
	C741.942444,313.514648 742.507385,313.298279 743.072388,313.081909 
z"/>
<path fill="#961522" opacity="1.000000" stroke="none" 
	d="
M774.105774,767.464783 
	C768.380249,767.887573 762.662659,769.118042 757.529419,767.895325 
	C747.321716,765.463928 744.550232,753.301147 751.847290,745.667053 
	C752.190552,745.307922 752.480469,744.897766 752.793030,744.514282 
	C747.915405,739.080872 747.570740,731.083374 752.002502,726.521301 
	C757.577942,720.781921 769.974060,720.164856 775.836426,725.334839 
	C781.487000,730.318237 781.611267,737.314331 776.175781,744.449890 
	C783.427856,752.488281 782.659790,762.191711 774.105774,767.464783 
M770.292480,748.855652 
	C766.376465,748.907166 762.190857,748.116882 758.624329,749.259521 
	C755.398926,750.292664 754.886841,757.054077 757.079773,759.551270 
	C759.744812,762.586060 767.682861,763.040466 771.138306,760.356140 
	C773.889526,758.218811 773.774719,752.864380 770.292480,748.855652 
M757.037292,731.968262 
	C757.024475,732.965149 757.080078,733.968445 756.987000,734.957825 
	C756.563293,739.462769 758.582825,741.432373 763.072876,741.000671 
	C764.225403,740.889771 765.401550,740.926575 766.560486,740.998718 
	C769.914001,741.207520 771.823730,740.043457 772.065002,736.329224 
	C772.318909,732.420959 771.686340,729.080627 767.110718,729.135071 
	C763.846130,729.173828 760.596191,730.441406 757.037292,731.968262 
z"/>
<path fill="#961522" opacity="1.000000" stroke="none" 
	d="
M689.085938,761.996948 
	C697.026611,761.835205 697.525208,761.156006 696.681030,753.189575 
	C690.965515,752.764038 685.264465,752.951416 679.875610,751.744873 
	C675.557068,750.778015 672.716125,747.369812 672.983032,742.311096 
	C673.096741,740.156189 673.049988,737.989014 672.994141,735.829529 
	C672.743835,726.154419 675.980225,724.238586 683.226379,722.499390 
	C689.123779,721.084106 695.734314,720.810852 700.908447,725.127930 
	C702.878052,726.771301 704.661072,729.765015 704.815125,732.249634 
	C705.307861,740.197815 704.778076,748.203857 705.071045,756.171875 
	C705.285156,761.997803 702.623535,767.113037 695.932007,768.484741 
	C687.859924,770.139465 680.020996,769.368408 673.893433,762.322327 
	C674.718140,760.608887 675.538696,758.903992 676.209229,757.510864 
	C680.389771,759.019104 684.520691,760.509399 689.085938,761.996948 
M685.904053,745.998474 
	C697.313721,745.993225 697.994385,745.404358 696.863037,734.468262 
	C696.674316,732.643860 695.204407,730.450439 693.664734,729.375488 
	C690.769653,727.354187 682.507385,729.648682 681.222351,732.376831 
	C679.357971,736.334900 681.544861,744.153870 685.904053,745.998474 
z"/>
<path fill="#961522" opacity="1.000000" stroke="none" 
	d="
M717.515503,751.817078 
	C712.172852,750.042603 710.363586,746.600037 710.956238,741.521973 
	C711.224548,739.223022 711.249756,736.835022 710.956116,734.542358 
	C710.010620,727.159790 713.574829,724.108948 719.786560,722.769958 
	C726.855896,721.245911 734.139038,720.515442 739.868530,726.505554 
	C740.973145,727.660400 741.873108,729.539490 741.905518,731.104492 
	C742.094971,740.255127 741.927490,749.412598 742.026917,758.566101 
	C742.079651,763.412903 739.351013,766.304077 735.307434,767.788940 
	C728.528564,770.278259 721.834412,769.416809 715.566467,765.857361 
	C710.870056,763.190430 710.776062,761.521362 715.073181,756.755737 
	C719.645203,761.854858 725.595093,763.569519 731.859314,761.360657 
	C735.607605,760.038940 735.517090,755.959167 734.889771,753.190491 
	C729.000610,752.774475 723.447021,752.382141 717.515503,751.817078 
M730.769348,729.267212 
	C728.784912,729.177979 726.794983,728.949036 724.817017,729.026123 
	C719.192871,729.245361 717.827820,731.394409 717.998657,739.472473 
	C718.096863,744.116638 720.129639,745.922913 725.146240,746.005981 
	C728.992371,746.069702 733.057739,746.227478 734.851624,742.024963 
	C736.592407,737.946838 734.648560,732.162476 730.769348,729.267212 
z"/>
<path fill="#961622" opacity="1.000000" stroke="none" 
	d="
M626.844666,765.982056 
	C620.380188,767.001099 614.352051,768.433594 608.252319,768.873169 
	C602.492920,769.288208 599.011902,765.391907 599.003418,759.744202 
	C598.993591,753.245239 599.377686,746.719482 598.917603,740.253296 
	C598.129333,729.175415 602.923096,727.859558 612.198730,726.169739 
	C615.558960,725.557617 619.351501,726.556091 622.805237,727.399353 
	C627.938110,728.652649 629.902039,732.571106 629.990906,737.574524 
	C630.047119,740.739685 629.863953,743.914551 630.042786,747.070618 
	C630.221863,750.231323 628.759705,751.098206 625.849854,751.039185 
	C619.387756,750.908081 612.921082,750.998352 606.166016,750.998352 
	C606.174744,755.604370 604.135132,760.780640 610.147705,762.419250 
	C612.842590,763.153687 616.118042,761.953247 619.089111,761.407898 
	C620.968994,761.062744 622.926941,760.584045 624.576843,759.671570 
	C627.318604,758.155151 628.216675,759.598877 629.447937,761.716064 
	C631.136719,764.619812 628.749207,764.958923 626.844666,765.982056 
M615.450867,744.000488 
	C617.553101,744.000488 619.655334,744.000488 622.003601,744.000488 
	C621.590332,740.103699 623.750122,735.601562 618.920227,734.217773 
	C615.754700,733.310852 611.681885,733.084167 608.786743,734.336243 
	C604.992554,735.977112 605.847595,740.214233 606.251160,744.000488 
	C609.224854,744.000488 611.853210,744.000488 615.450867,744.000488 
z"/>
<path fill="#961623" opacity="1.000000" stroke="none" 
	d="
M552.000427,760.921509 
	C552.000427,753.436462 552.053650,746.441895 551.983276,739.448547 
	C551.928528,734.005310 549.901672,732.276245 544.707458,733.007263 
	C538.871216,733.828552 535.999878,737.097595 535.999573,742.922363 
	C535.999207,751.064880 535.999512,759.207336 535.999512,767.674072 
	C533.399841,767.674072 531.001099,767.674072 528.003662,767.674072 
	C528.003662,755.191833 527.942810,742.596680 528.119263,730.004944 
	C528.133301,728.999084 529.886963,727.116882 530.657410,727.203186 
	C532.464844,727.405457 534.166260,728.554871 535.292419,729.049377 
	C540.489075,728.003052 545.425476,726.571838 550.448853,726.130249 
	C554.788147,725.748718 558.905701,730.079651 558.956848,734.502075 
	C559.083618,745.468079 558.998535,756.436462 558.998535,767.700562 
	C556.676697,767.700562 554.615234,767.700562 552.000427,767.700562 
	C552.000427,765.632202 552.000427,763.522339 552.000427,760.921509 
z"/>
<path fill="#941522" opacity="1.000000" stroke="none" 
	d="
M478.083832,765.020020 
	C476.751801,764.083740 475.799805,763.194946 474.767609,762.231262 
	C475.954987,760.494690 477.031555,758.920105 477.435028,758.330017 
	C482.981384,759.636108 487.965851,761.003723 493.030060,761.939636 
	C496.921783,762.658813 498.248962,759.515015 498.880310,756.648804 
	C499.529816,753.700195 497.577362,751.844604 494.796753,751.033752 
	C490.496796,749.779724 485.958282,749.082886 481.915161,747.270447 
	C475.948151,744.595398 474.394562,739.903320 475.982330,732.298157 
	C476.687775,728.919067 481.826447,726.014526 487.087982,726.001282 
	C493.453217,725.985168 499.622711,726.700684 505.282593,730.478516 
	C504.295807,732.475464 503.455109,734.176819 502.976898,735.144592 
	C497.751007,734.408386 492.878876,733.369812 487.981201,733.230774 
	C486.355377,733.184570 483.584839,735.247620 483.310028,736.715515 
	C483.042419,738.145325 484.935638,740.858582 486.523682,741.568298 
	C489.552704,742.921936 493.042236,743.239624 496.335815,744.007996 
	C503.823303,745.754822 506.948792,750.625732 505.994507,759.036133 
	C505.343719,764.771790 500.633270,768.815247 494.099640,768.966980 
	C488.565643,769.095398 482.939758,769.307129 478.083832,765.020020 
z"/>
<path fill="#961522" opacity="1.000000" stroke="none" 
	d="
M591.820190,728.958984 
	C593.150269,729.589661 594.086121,730.147095 594.984924,730.682495 
	C593.587891,734.727051 592.122009,737.949219 587.301575,734.228821 
	C586.143372,733.334839 584.257507,733.326599 582.682861,733.038879 
	C575.757812,731.773438 573.003174,734.104370 572.999023,741.177368 
	C572.996094,746.163452 572.895569,751.152344 573.027222,756.134949 
	C573.162598,761.259827 576.265747,763.498169 581.301270,762.261047 
	C585.006226,761.350769 588.690430,760.355469 592.647461,759.329773 
	C593.298767,760.600769 594.162598,762.286560 595.011719,763.943665 
	C590.506592,768.388550 577.164185,770.779053 571.639038,768.200134 
	C567.859375,766.436096 565.908508,763.600281 565.973267,759.303711 
	C566.078491,752.324707 566.553467,745.288635 565.872314,738.375183 
	C564.853943,728.039246 572.325500,725.516602 579.768738,726.116211 
	C583.703308,726.433167 587.543274,727.924683 591.820190,728.958984 
z"/>
<path fill="#961623" opacity="1.000000" stroke="none" 
	d="
M657.945618,731.116699 
	C657.448608,731.081055 656.875183,730.864929 656.466553,731.038025 
	C652.673767,732.644958 649.545044,732.954224 649.551147,726.495972 
	C654.238647,725.135620 659.668823,723.559753 665.740540,721.797668 
	C665.740540,738.023804 665.740540,752.751465 665.740540,767.982178 
	C663.759094,767.982178 661.828003,767.982178 659.448608,767.454285 
	C658.997864,756.115845 659.026184,745.305054 658.947021,734.495056 
	C658.938721,733.366577 658.294678,732.242737 657.945618,731.116699 
z"/>
<path fill="#971522" opacity="1.000000" stroke="none" 
	d="
M518.833435,727.050232 
	C519.541321,730.502380 519.947571,733.914062 519.978088,737.329163 
	C520.068481,747.429749 520.010437,757.531677 520.010437,767.812561 
	C517.266846,767.812561 514.981323,767.812561 512.347473,767.812561 
	C512.347473,754.506348 512.347473,741.116821 512.347473,727.011353 
	C514.214478,727.011353 516.287292,727.011353 518.833435,727.050232 
z"/>
<path fill="#941522" opacity="1.000000" stroke="none" 
	d="
M518.108887,712.021851 
	C518.705688,714.610901 519.101990,717.152527 518.928345,719.654602 
	C518.892090,720.176758 516.532715,721.174805 515.626587,720.858276 
	C514.051880,720.308044 512.176208,719.170898 511.556122,717.777344 
	C511.021179,716.575195 511.544861,714.058777 512.529602,713.237366 
	C513.756653,712.214172 515.937134,712.334045 518.108887,712.021851 
z"/>
<path fill="#780101" opacity="1.000000" stroke="none" 
	d="
M446.091919,551.509766 
	C446.430847,551.631226 446.929138,552.213684 446.927063,552.794312 
	C446.878601,566.300781 446.775879,579.807068 446.417969,593.624146 
	C446.107880,579.946533 446.063019,565.958191 446.091919,551.509766 
z"/>
<path fill="#780101" opacity="1.000000" stroke="none" 
	d="
M657.972046,731.577026 
	C658.294678,732.242737 658.938721,733.366577 658.947021,734.495056 
	C659.026184,745.305054 658.997864,756.115845 659.000732,767.384888 
	C658.668518,766.396973 658.059387,764.952759 658.047791,763.503845 
	C657.963562,753.015564 658.000122,742.526245 657.972046,731.577026 
z"/>
<path fill="#920101" opacity="1.000000" stroke="none" 
	d="
M974.433777,613.705200 
	C974.016235,602.248535 974.012207,590.662659 974.016785,578.618408 
	C974.349365,578.776794 974.955017,579.393311 974.955383,580.010193 
	C974.962708,591.198792 974.897278,602.387329 974.433777,613.705200 
z"/>
<path fill="#FFFFFF" opacity="1.000000" stroke="none" 
	d="
M635.172729,621.000000 
	C632.891602,621.000000 631.085205,621.000000 628.290588,621.000000 
	C637.341370,601.248230 646.078491,582.180786 655.080811,562.534729 
	C664.201599,582.457520 672.929504,601.522034 681.846680,621.000000 
	C666.177307,621.000000 650.912415,621.000000 635.172729,621.000000 
z"/>
<path fill="#FFFFFF" opacity="1.000000" stroke="none" 
	d="
M543.899658,591.999329 
	C541.805359,592.482483 540.118042,592.962219 537.678040,593.655884 
	C549.583679,594.911316 558.765320,599.668213 564.840210,609.392883 
	C571.397339,619.889648 570.863770,634.132568 563.367249,644.269104 
	C555.976624,654.262390 545.839111,657.546936 534.216858,657.966187 
	C528.731384,658.164062 523.232849,658.000122 517.370117,658.000122 
	C517.370117,619.169434 517.370117,580.452942 517.370117,540.949646 
	C527.357605,541.503967 537.892090,539.027405 547.664429,543.397339 
	C562.682068,550.112793 568.883179,568.670349 557.949524,582.619446 
	C554.306946,587.266663 549.644836,590.022888 543.899658,591.999329 
z"/>
<path fill="#FFFFFF" opacity="1.000000" stroke="none" 
	d="
M292.226746,624.282837 
	C287.520752,639.865540 271.743134,655.887024 255.169357,657.122131 
	C238.187531,658.387573 226.365585,650.470520 217.262894,637.457092 
	C207.846207,623.994812 204.453735,608.609375 206.127228,592.467773 
	C208.176987,572.696838 216.464447,555.843262 234.165054,545.615173 
	C246.983017,538.208496 260.354218,539.635132 272.532166,548.135498 
	C286.531372,557.907104 293.257690,572.000977 296.080078,588.489502 
	C297.916718,599.219055 296.877289,609.588562 293.981262,619.910217 
	C293.593811,621.291016 292.969391,622.605408 292.226746,624.282837 
z"/>
<path fill="#FFFFFF" opacity="1.000000" stroke="none" 
	d="
M742.892578,312.891541 
	C742.507385,313.298279 741.942444,313.514648 741.377441,313.731018 
	C741.540710,313.394165 741.703979,313.057281 742.091919,312.539581 
	C742.448608,312.472931 742.580688,312.587067 742.892578,312.891541 
z"/>
<path fill="#FFFFFF" opacity="1.000000" stroke="none" 
	d="
M770.598450,749.151184 
	C773.774719,752.864380 773.889526,758.218811 771.138306,760.356140 
	C767.682861,763.040466 759.744812,762.586060 757.079773,759.551270 
	C754.886841,757.054077 755.398926,750.292664 758.624329,749.259521 
	C762.190857,748.116882 766.376465,748.907166 770.598450,749.151184 
z"/>
<path fill="#FFFFFF" opacity="1.000000" stroke="none" 
	d="
M757.188477,731.564453 
	C760.596191,730.441406 763.846130,729.173828 767.110718,729.135071 
	C771.686340,729.080627 772.318909,732.420959 772.065002,736.329224 
	C771.823730,740.043457 769.914001,741.207520 766.560486,740.998718 
	C765.401550,740.926575 764.225403,740.889771 763.072876,741.000671 
	C758.582825,741.432373 756.563293,739.462769 756.987000,734.957825 
	C757.080078,733.968445 757.024475,732.965149 757.188477,731.564453 
z"/>
<path fill="#FFFFFF" opacity="1.000000" stroke="none" 
	d="
M685.463867,745.983215 
	C681.544861,744.153870 679.357971,736.334900 681.222351,732.376831 
	C682.507385,729.648682 690.769653,727.354187 693.664734,729.375488 
	C695.204407,730.450439 696.674316,732.643860 696.863037,734.468262 
	C697.994385,745.404358 697.313721,745.993225 685.463867,745.983215 
z"/>
<path fill="#FFFFFF" opacity="1.000000" stroke="none" 
	d="
M731.075867,729.562866 
	C734.648560,732.162476 736.592407,737.946838 734.851624,742.024963 
	C733.057739,746.227478 728.992371,746.069702 725.146240,746.005981 
	C720.129639,745.922913 718.096863,744.116638 717.998657,739.472473 
	C717.827820,731.394409 719.192871,729.245361 724.817017,729.026123 
	C726.794983,728.949036 728.784912,729.177979 731.075867,729.562866 
z"/>
<path fill="#FFFFFF" opacity="1.000000" stroke="none" 
	d="
M614.966187,744.000488 
	C611.853210,744.000488 609.224854,744.000488 606.251160,744.000488 
	C605.847595,740.214233 604.992554,735.977112 608.786743,734.336243 
	C611.681885,733.084167 615.754700,733.310852 618.920227,734.217773 
	C623.750122,735.601562 621.590332,740.103699 622.003601,744.000488 
	C619.655334,744.000488 617.553101,744.000488 614.966187,744.000488 
z"/>
</svg>